<?xml version="1.0" encoding="UTF-8"?>
<svg version="1.1" xmlns="http://www.w3.org/2000/svg" width="515" height="135">
<path d="M0 0 C169.95 0 339.9 0 515 0 C515 44.55 515 89.1 515 135 C345.05 135 175.1 135 0 135 C0 90.45 0 45.9 0 0 Z " fill="#EB2029" transform="translate(0,0)"/>
<path d="M0 0 C169.95 0 339.9 0 515 0 C515 44.55 515 89.1 515 135 C345.05 135 175.1 135 0 135 C0 90.45 0 45.9 0 0 Z M132 3 C132 45.57 132 88.14 132 132 C177.43687304 132.08818874 222.87366533 132.16204273 268.31059947 132.20426132 C273.67532818 132.20926412 279.04005671 132.21444141 284.40478516 132.21972656 C286.00681063 132.22130043 286.00681063 132.22130043 287.64120026 132.22290608 C304.93243113 132.24030941 322.22360879 132.27184673 339.5148081 132.30861118 C357.25830778 132.34602256 375.0017796 132.36823628 392.7453171 132.37635398 C403.69327803 132.38184133 414.64108854 132.39917025 425.58900316 132.43166587 C433.09727597 132.45281616 440.60547105 132.45919886 448.11377148 132.45400551 C452.44513343 132.45144455 456.77623259 132.45535938 461.10754776 132.4768219 C465.07675069 132.49634608 469.04551514 132.49723226 473.01473863 132.48359558 C474.44694824 132.48191122 475.87918566 132.48693582 477.31134085 132.49953273 C486.99767045 132.57974382 495.41910938 131.73248999 503.3125 125.6875 C508.75468181 120.24531819 510.8258097 116.60966603 513 109 C513 74.02 513 39.04 513 3 C387.27 3 261.54 3 132 3 Z " fill="#A4CC3A" transform="translate(0,0)"/>
<path d="M0 0 C6.42372261 -0.45078755 9.73666695 0.21040021 15 4 C16.93146559 7.02770282 17.34484346 9.70135047 17.625 13.25 C17.73714844 14.58804688 17.73714844 14.58804688 17.8515625 15.953125 C17.90054688 16.62859375 17.94953125 17.3040625 18 18 C18.73605469 18.04898438 19.47210938 18.09796875 20.23046875 18.1484375 C21.20628906 18.22320312 22.18210937 18.29796875 23.1875 18.375 C24.15042969 18.44460937 25.11335938 18.51421875 26.10546875 18.5859375 C29.01508938 19.00215853 31.32890774 19.79874096 34 21 C34.05397335 23.4377963 34.09365616 25.87439685 34.125 28.3125 C34.14175781 29.00279297 34.15851563 29.69308594 34.17578125 30.40429688 C34.21217794 34.17135396 34.14378864 35.78431704 32 39 C31.34 39 30.68 39 30 39 C30 39.66 30 40.32 30 41 C28.68 41.33 27.36 41.66 26 42 C26 43.65 26 45.3 26 47 C26.5775 47.226875 27.155 47.45375 27.75 47.6875 C30.72046866 49.42027339 32.18020872 51.07533544 34 54 C34.44125313 58.19190478 34.49750565 61.50349209 32 65 C28.57142857 68 28.57142857 68 26 68 C25.505 69.98 25.505 69.98 25 72 C21.535 72.495 21.535 72.495 18 73 C17.86722656 73.62648438 17.73445313 74.25296875 17.59765625 74.8984375 C17.42105469 75.71570313 17.24445313 76.53296875 17.0625 77.375 C16.88847656 78.18710938 16.71445313 78.99921875 16.53515625 79.8359375 C16 82 16 82 15 84 C13.35 84 11.7 84 10 84 C9.505 85.485 9.505 85.485 9 87 C2.73455149 87.38359889 -1.35237759 86.71085876 -7 84 C-10.20033755 83.81160094 -10.20033755 83.81160094 -13.6875 85.5 C-18.08318052 87.18878167 -21.29844738 87.53952243 -26 87 C-29 85.125 -29 85.125 -31 83 C-31 82.34 -31 81.68 -31 81 C-32.32 80.67 -33.64 80.34 -35 80 C-35.125 73.375 -35.125 73.375 -34 70 C-34.86625 70.226875 -35.7325 70.45375 -36.625 70.6875 C-40.80983433 71.07498466 -42.50559128 70.27896221 -46 68 C-50 63.68421053 -50 63.68421053 -50 61 C-50.66 61 -51.32 61 -52 61 C-52.02705729 59.22925083 -52.04642195 57.45838289 -52.0625 55.6875 C-52.07410156 54.70136719 -52.08570312 53.71523437 -52.09765625 52.69921875 C-52 50 -52 50 -51 47 C-50.01 46.34 -49.02 45.68 -48 45 C-48 44.34 -48 43.68 -48 43 C-48.66 42.67 -49.32 42.34 -50 42 C-49.34 42 -48.68 42 -48 42 C-48 41.34 -48 40.68 -48 40 C-49.32 39.34 -50.64 38.68 -52 38 C-52 34.37 -52 30.74 -52 27 C-51.34 27 -50.68 27 -50 27 C-49.01 23.535 -49.01 23.535 -48 20 C-47.01 20 -46.02 20 -45 20 C-45 19.34 -45 18.68 -45 18 C-43.741875 17.979375 -42.48375 17.95875 -41.1875 17.9375 C-40.47980469 17.92589844 -39.77210937 17.91429688 -39.04296875 17.90234375 C-37 18 -37 18 -34 19 C-34.01160156 18.24074219 -34.02320312 17.48148438 -34.03515625 16.69921875 C-34.04417969 15.70535156 -34.05320312 14.71148437 -34.0625 13.6875 C-34.07410156 12.70136719 -34.08570312 11.71523438 -34.09765625 10.69921875 C-34 8 -34 8 -33 5 C-32.34 5 -31.68 5 -31 5 C-30.67 4.01 -30.34 3.02 -30 2 C-19.29355149 1.37632339 -19.29355149 1.37632339 -14.5 3.6875 C-12.03305922 5.96942022 -9.96658729 8.27703299 -8 11 C-7.67386719 10.43410156 -7.34773438 9.86820313 -7.01171875 9.28515625 C-6.57472656 8.55167969 -6.13773438 7.81820313 -5.6875 7.0625 C-5.25824219 6.33160156 -4.82898438 5.60070312 -4.38671875 4.84765625 C-3 3 -3 3 0 2 C0 1.34 0 0.68 0 0 Z " fill="#B0C957" transform="translate(75,23)"/>
<path d="M0 0 C169.95 0 339.9 0 515 0 C515 44.55 515 89.1 515 135 C345.05 135 175.1 135 0 135 C0 90.45 0 45.9 0 0 Z M10 14 C10 14.66 10 15.32 10 16 C9.34 16 8.68 16 8 16 C0.77567386 26.47488893 2.36767277 38.91030039 2.51171875 51.04296875 C2.51908135 53.11673308 2.52417535 55.19050672 2.52697754 57.26428223 C2.55306255 64.90549764 2.62286899 72.5465134 2.6875 80.1875 C2.790625 97.285625 2.89375 114.38375 3 132 C43.92 132 84.84 132 127 132 C127 89.43 127 46.86 127 3 C102.311875 2.8453125 102.311875 2.8453125 77.125 2.6875 C69.35219482 2.61921997 69.35219482 2.61921997 61.42236328 2.54956055 C56.74559848 2.53283033 56.74559848 2.53283033 52.06881714 2.52278137 C49.99836849 2.5151427 47.927941 2.49763891 45.8576355 2.47212219 C42.70694816 2.43525721 39.55761055 2.43047852 36.40673828 2.43237305 C35.49651476 2.41438251 34.58629124 2.39639196 33.64848518 2.37785625 C23.89522792 2.45580182 16.24152107 6.60872505 10 14 Z M132 3 C132 45.57 132 88.14 132 132 C177.43687304 132.08818874 222.87366533 132.16204273 268.31059947 132.20426132 C273.67532818 132.20926412 279.04005671 132.21444141 284.40478516 132.21972656 C286.00681063 132.22130043 286.00681063 132.22130043 287.64120026 132.22290608 C304.93243113 132.24030941 322.22360879 132.27184673 339.5148081 132.30861118 C357.25830778 132.34602256 375.0017796 132.36823628 392.7453171 132.37635398 C403.69327803 132.38184133 414.64108854 132.39917025 425.58900316 132.43166587 C433.09727597 132.45281616 440.60547105 132.45919886 448.11377148 132.45400551 C452.44513343 132.45144455 456.77623259 132.45535938 461.10754776 132.4768219 C465.07675069 132.49634608 469.04551514 132.49723226 473.01473863 132.48359558 C474.44694824 132.48191122 475.87918566 132.48693582 477.31134085 132.49953273 C486.99767045 132.57974382 495.41910938 131.73248999 503.3125 125.6875 C508.75468181 120.24531819 510.8258097 116.60966603 513 109 C513 74.02 513 39.04 513 3 C387.27 3 261.54 3 132 3 Z " fill="#FDFBF6" transform="translate(0,0)"/>
<path d="M0 0 C4.95 0 9.9 0 15 0 C15.09924142 7.38318 15.17164627 14.76596744 15.21972656 22.1496582 C15.23978062 24.65884164 15.26703085 27.16797869 15.30175781 29.67700195 C15.35054754 33.29389933 15.37303182 36.9101761 15.390625 40.52734375 C15.41127014 41.64020248 15.43191528 42.75306122 15.45318604 43.89964294 C15.45591062 53.46261347 12.69244485 61.93868023 6 69 C-1.95379216 75.1280714 -9.09608874 75.67526668 -19 75 C-23.70783276 73.9130004 -28.07691853 71.8197148 -32 69 C-32 68.34 -32 67.68 -32 67 C-32.8353125 66.7215625 -32.8353125 66.7215625 -33.6875 66.4375 C-37.92849646 63.8012049 -40.23464087 59.64005528 -42.3125 55.1875 C-44.15575138 46.64151633 -43.28996401 38.70583348 -39 31 C-33.85951074 24.87988902 -27.69514712 20.59961245 -19.62548828 19.75 C-17.13877945 19.67094707 -14.6745391 19.68787256 -12.1875 19.75 C-11.34251953 19.75515625 -10.49753906 19.7603125 -9.62695312 19.765625 C-6.1045953 19.81038888 -3.36988958 19.87670347 0 21 C0 14.07 0 7.14 0 0 Z " fill="#FDF8F7" transform="translate(293,30)"/>
<path d="M0 0 C6.26613579 4.04227191 10.39143807 9.84852953 12.6171875 16.9765625 C13.92304288 23.87894092 13.56992333 30.86307494 10 37 C5.0818813 43.71577588 -0.66501048 49.45878081 -8.8125 51.8125 C-9.864375 51.874375 -10.91625 51.93625 -12 52 C-12.79019531 52.08507812 -13.58039063 52.17015625 -14.39453125 52.2578125 C-23.10003282 52.83070674 -30.27585842 49.97623139 -36.94921875 44.359375 C-38.52909987 42.65612785 -39.77092242 40.96977996 -41 39 C-41.40992188 38.35546875 -41.81984375 37.7109375 -42.2421875 37.046875 C-45.81760906 30.38919348 -45.95984465 23.38737578 -45 16 C-42.33180395 7.40533003 -35.20397847 1.63779041 -27.8125 -3 C-18.25504877 -5.50687245 -8.6265767 -4.96260058 0 0 Z " fill="#FDF5F4" transform="translate(361,53)"/>
<path d="M0 0 C3.80059103 3.16715919 6.06388239 6.50414718 7.625 11.1875 C7.87700799 14.22457809 7.85631004 17.26603646 7.875 20.3125 C7.895625 21.12976563 7.91625 21.94703125 7.9375 22.7890625 C7.98559026 30.38732426 6.59806669 38.06158432 1.265625 43.84375 C-8.41164959 51.76989871 -20.33080778 53.109741 -32.375 52.1875 C-35.54394684 51.49275211 -38.42662002 50.53215865 -41.375 49.1875 C-42.06980469 48.88457031 -42.76460938 48.58164063 -43.48046875 48.26953125 C-47.24993505 46.11666081 -49.0442686 42.1796942 -50.375 38.1875 C-50.77651764 33.99472926 -51.0195574 30.38872061 -49 26.625 C-47.375 25.1875 -47.375 25.1875 -45.375 25.1875 C-45.375 24.5275 -45.375 23.8675 -45.375 23.1875 C-38.94845829 18.51365148 -30.89509837 17.6487421 -23.24804688 16.33203125 C-19.14914554 15.59966271 -15.23992487 14.75707254 -11.375 13.1875 C-10.40622943 11.15506452 -10.40622943 11.15506452 -10.375 9.1875 C-18.07355265 6.62131578 -25.1239423 8.13442308 -32.375 11.1875 C-36.375 11.1875 -36.375 11.1875 -38.078125 9.5078125 C-38.84382813 8.42113281 -38.84382813 8.42113281 -39.625 7.3125 C-40.14578125 6.59320313 -40.6665625 5.87390625 -41.203125 5.1328125 C-42.375 3.1875 -42.375 3.1875 -42.375 1.1875 C-29.66662016 -7.10057381 -13.26482155 -7.12370046 0 0 Z " fill="#FCF6F5" transform="translate(474.375,52.8125)"/>
<path d="M0 0 C5.33266263 5.80319168 6.48893445 11.78475505 6.296875 19.4609375 C6.30396484 20.25564453 6.31105469 21.05035156 6.31835938 21.86914062 C6.24523067 28.78261561 5.04437713 35.27657768 0.671875 40.7734375 C-10.24476633 49.50675056 -21.1330778 52.23069954 -35.140625 51.0234375 C-41.26019044 49.88757571 -45.09800679 47.89835946 -49.140625 43.0234375 C-49.94113281 42.11078125 -49.94113281 42.11078125 -50.7578125 41.1796875 C-52.43939015 38.55756642 -52.48372546 37.04721763 -52.390625 33.9609375 C-52.37515625 33.10371094 -52.3596875 32.24648437 -52.34375 31.36328125 C-52.08230673 28.35165592 -51.60777121 26.51166632 -49.49609375 24.3046875 C-42.18664855 18.29908928 -35.06639942 16.78172338 -25.88671875 15.359375 C-25.16234619 15.24045898 -24.43797363 15.12154297 -23.69165039 14.99902344 C-22.26328289 14.76889489 -20.83121811 14.56045247 -19.39624023 14.37597656 C-17.16748419 14.07428008 -17.16748419 14.07428008 -14.140625 13.0234375 C-12.58812341 10.54981704 -12.58812341 10.54981704 -12.140625 8.0234375 C-20.7954356 5.57879852 -28.75479086 7.34507222 -37.140625 10.0234375 C-38.31323111 8.73716039 -39.4785533 7.44423967 -40.640625 6.1484375 C-41.2903125 5.42914063 -41.94 4.70984375 -42.609375 3.96875 C-44.140625 2.0234375 -44.140625 2.0234375 -44.140625 0.0234375 C-30.19765216 -7.44601223 -13.46249607 -9.62401578 0 0 Z " fill="#FCF6F5" transform="translate(213.140625,53.9765625)"/>
<path d="M0 0 C1.15639123 0.01027129 1.15639123 0.01027129 2.3361439 0.02075008 C3.5614702 0.01979356 3.5614702 0.01979356 4.81155057 0.01881772 C7.56038169 0.01911294 10.3089524 0.03375158 13.05774252 0.0482693 C15.01430462 0.05137415 16.97086829 0.05359564 18.92743235 0.05499366 C24.25361358 0.06130285 29.57968951 0.07999147 34.90583125 0.10078183 C40.54300624 0.12065655 46.18019844 0.12915992 51.81739848 0.1388531 C61.1566676 0.1563441 70.49589686 0.18052774 79.83513587 0.20992091 C91.38020162 0.24622051 102.92525775 0.27237848 114.47036153 0.29280326 C135.80446093 0.33071938 157.13849841 0.38556594 178.4725478 0.44481367 C188.95211977 0.47387449 199.43169581 0.50133845 209.91127213 0.52877542 C228.57420869 0.57767566 247.23714203 0.62770172 265.90007346 0.67851833 C283.94531921 0.72765046 301.99056638 0.77620092 320.03581565 0.82402614 C321.16278631 0.82701313 322.28975698 0.83000013 323.45087827 0.83307764 C329.10893695 0.84807072 334.76699565 0.86305297 340.42505436 0.87802985 C386.7882326 1.000767 433.15140568 1.12536542 479.51457541 1.25127223 C479.51457541 1.58127223 479.51457541 1.91127223 479.51457541 2.25127223 C353.78457541 2.25127223 228.05457541 2.25127223 98.51457541 2.25127223 C98.51457541 44.82127223 98.51457541 87.39127223 98.51457541 131.25127223 C92.88957541 134.62627223 92.88957541 134.62627223 88.09189169 134.61203578 C86.47868537 134.61822177 86.47868537 134.61822177 84.83288901 134.62453273 C83.6633216 134.6137469 82.49375418 134.60296107 81.28874533 134.5918484 C79.42959494 134.59250552 79.42959494 134.59250552 77.53288596 134.59317592 C74.14257825 134.59144626 70.75282125 134.57642029 67.36261098 134.55545405 C63.81654672 134.53667672 60.27047481 134.53493598 56.7243685 134.53137782 C50.01313869 134.52206043 43.3020558 134.49745089 36.59089063 134.46732935 C28.94886104 134.43377574 21.30682436 134.41729693 13.66473942 134.40224305 C-2.05206695 134.37090099 -17.76872681 134.31814655 -33.48542459 134.25127223 C-33.48542459 133.26127223 -33.48542459 132.27127223 -33.48542459 131.25127223 C8.42457541 131.25127223 50.33457541 131.25127223 93.51457541 131.25127223 C93.51457541 88.68127223 93.51457541 46.11127223 93.51457541 2.25127223 C60.18457541 2.25127223 26.85457541 2.25127223 -7.48542459 2.25127223 C-4.96722627 -0.26692609 -3.43460605 0.01505449 0 0 Z " fill="#FBD6D0" transform="translate(33.48542458936572,0.7487277686595917)"/>
<path d="M0 0 C0.33 0 0.66 0 1 0 C1.13211425 12.92866426 1.26260333 25.85734388 1.39115143 38.78604412 C1.45092264 44.7926735 1.5112044 50.79929676 1.57275391 56.8059082 C1.63239762 62.62853082 1.69056857 68.45116662 1.74781799 74.27381325 C1.76963888 76.46876337 1.79194536 78.66370874 1.81480408 80.8586483 C1.99185056 97.90749236 2 114.94867743 2 132 C-126.04 132 -254.08 132 -386 132 C-385.34 131.01 -384.68 130.02 -384 129 C-381.44836712 128.62559515 -381.44836712 128.62559515 -378.14396667 128.62641239 C-376.88864576 128.61942265 -375.63332485 128.6124329 -374.33996391 128.60523134 C-372.93391662 128.61262606 -371.52787071 128.62028834 -370.12182617 128.62818909 C-368.63817126 128.62561666 -367.15451814 128.6217177 -365.67086983 128.6165995 C-361.57865175 128.60628066 -357.48664782 128.61465894 -353.39443994 128.62589633 C-348.98659731 128.6347192 -344.57878598 128.62625572 -340.17094421 128.61968994 C-332.5267644 128.61051592 -324.88264456 128.61187574 -317.23846436 128.61987495 C-306.1752684 128.63108768 -295.11215823 128.62208175 -284.04896975 128.60731315 C-266.08684719 128.58351586 -248.1247352 128.57017215 -230.16259766 128.56616211 C-228.54881092 128.56579481 -228.54881092 128.56579481 -226.90242243 128.56542008 C-214.90693294 128.56287572 -202.91144427 128.56230645 -190.91595459 128.56335449 C-186.57076009 128.56368749 -182.2255656 128.5639729 -177.88037109 128.56420898 C-176.27218221 128.56430317 -176.27218221 128.56430317 -174.63150465 128.56439925 C-156.74779379 128.56500429 -138.86413165 128.55011186 -120.98044109 128.52337593 C-109.94791004 128.50757086 -98.91553626 128.50531288 -87.88300353 128.52050995 C-80.318198 128.52997982 -72.75348717 128.52521204 -65.18869275 128.50929613 C-60.82492765 128.50060513 -56.46141422 128.49845324 -52.09766197 128.51382256 C-48.09891164 128.52779358 -44.10061607 128.52325244 -40.10189021 128.50430154 C-38.65898268 128.50070253 -37.21603876 128.50379969 -35.77316606 128.51445121 C-26.02939423 128.58150625 -18.45411101 127.51487154 -10.1875 122.1875 C-2.18005046 114.18005046 -0.70582739 106.50925603 -0.68115234 95.47485352 C-0.67110672 94.43995285 -0.6610611 93.40505219 -0.65071106 92.33879089 C-0.61994638 88.93550139 -0.60286242 85.53229033 -0.5859375 82.12890625 C-0.56722048 79.76235787 -0.54764666 77.39581613 -0.5272522 75.02928162 C-0.47598163 68.81348589 -0.43632861 62.59766853 -0.39910889 56.3817749 C-0.35903751 50.03375928 -0.30795944 43.68583323 -0.2578125 37.33789062 C-0.16111324 24.89199005 -0.07668916 12.44603884 0 0 Z " fill="#FEEFEE" transform="translate(513,3)"/>
<path d="M0 0 C3.26324617 1.33747132 6.12370558 2.96625647 9 5 C9 9.29281989 7.25990922 11.19016379 4.46875 14.3359375 C0.30738811 17.14090611 -3.85531772 16.42779938 -8.6953125 15.98828125 C-12.56155216 16.00199132 -14.05259188 16.52682883 -17 19 C-19.75902978 23.55735961 -20.4023784 27.07511467 -20.51171875 32.3671875 C-20.52966995 33.04677521 -20.54762115 33.72636292 -20.56611633 34.42654419 C-20.61986817 36.57596819 -20.65399936 38.72517477 -20.6875 40.875 C-20.72070438 42.34117587 -20.7551969 43.80732317 -20.79101562 45.2734375 C-20.87797743 48.84898344 -20.93833745 52.42357227 -21 56 C-26.28 56 -31.56 56 -37 56 C-37.23114776 51.17414848 -37.42942061 46.36777638 -37.54931641 41.54077148 C-37.59930035 39.90403933 -37.66732082 38.26774686 -37.75439453 36.63256836 C-38.45762617 23.07674438 -38.45762617 23.07674438 -34.87670898 17.97485352 C-32.35795759 15.69289395 -29.86012154 13.8275485 -27 12 C-25.59859932 10.944854 -24.20157477 9.88382078 -22.8125 8.8125 C-22.16410156 8.35230469 -21.51570313 7.89210938 -20.84765625 7.41796875 C-18.95739838 6.04137122 -18.95739838 6.04137122 -17.37109375 4.30078125 C-12.27752552 -0.9646182 -7.07493638 -1.27056351 0 0 Z " fill="#FDF3F2" transform="translate(418,49)"/>
<path d="M0 0 C4.62 0 9.24 0 14 0 C14 24.42 14 48.84 14 74 C9.38 74 4.76 74 0 74 C0 49.58 0 25.16 0 0 Z " fill="#FEFBFA" transform="translate(228,30)"/>
<path d="M0 0 C125.4 0 250.8 0 380 0 C380 1.65 380 3.3 380 5 C379.67 4.01 379.34 3.02 379 2 C254.26 1.67 129.52 1.34 1 1 C1 42.91 1 84.82 1 128 C46.04645699 127.89459368 91.09289904 127.78565732 136.13932769 127.66888306 C141.45299245 127.65511287 146.76665732 127.64138586 152.08032227 127.62768555 C153.66715831 127.62359309 153.66715831 127.62359309 155.28605165 127.61941796 C172.43324706 127.57529835 189.58044907 127.53468009 206.72765604 127.49534739 C224.31180363 127.4549348 241.89593892 127.41077906 259.48006839 127.36312145 C270.33738613 127.33381406 281.19470292 127.30745433 292.05203667 127.28482103 C299.48923569 127.26903816 306.92641965 127.24963168 314.36360196 127.22733159 C318.65956313 127.21455871 322.95551268 127.20342569 327.25148773 127.19658089 C331.1801132 127.19028626 335.1086986 127.1794683 339.0373021 127.1649667 C340.46264451 127.16051923 341.88799338 127.15776902 343.31334243 127.15683801 C345.24300632 127.15533575 347.17266168 127.14719056 349.10230732 127.1386652 C350.71365054 127.13467814 350.71365054 127.13467814 352.35754615 127.13061053 C355.10808494 127.11342062 355.10808494 127.11342062 358 126 C358.99 126.66 359.98 127.32 361 128 C357.76540026 129.07819991 355.44238051 129.12423711 352.03983784 129.12304783 C350.16029469 129.1260344 350.16029469 129.1260344 348.24278098 129.12908131 C346.8445778 129.12622808 345.44637481 129.12328248 344.048172 129.12025452 C342.56890411 129.12069034 341.0896363 129.12156545 339.61036891 129.12284368 C335.53537372 129.12508645 331.46040467 129.12107032 327.38541281 129.11606562 C322.99483147 129.1117582 318.60425168 129.11320775 314.21366882 129.1139679 C306.60333213 129.11449294 298.99300399 129.11134813 291.38266945 129.10573006 C280.37932278 129.09761249 269.37598026 129.09499957 258.37263092 129.09374207 C240.52161162 129.09155195 222.67059689 129.08489296 204.81958008 129.07543945 C187.47615583 129.06626429 170.13273282 129.05918396 152.78930664 129.05493164 C151.72075039 129.05466892 150.65219415 129.05440619 149.55125741 129.05413551 C144.19077181 129.0528305 138.8302862 129.05156678 133.46980059 129.05032361 C88.97986301 129.03995226 44.48993386 129.02151463 0 129 C0 86.43 0 43.86 0 0 Z " fill="#C01F25" transform="translate(132,3)"/>
<path d="M0 0 C3.375 1.6875 3.375 1.6875 6 4 C6.78375 4.680625 7.5675 5.36125 8.375 6.0625 C10.88394137 10.59789401 10.75518374 14.93582665 10 20 C8.94201082 22.59059032 7.92956061 23.90018404 6 26 C5.34 26 4.68 26 4 26 C4 26.66 4 27.32 4 28 C-0.49915384 30.99943589 -4.73690075 30.94649741 -10 30 C-14.1376754 27.6318128 -17.01326041 24.60345183 -19.5 20.5625 C-20.50538217 15.40991639 -20.51039272 11.47745262 -18.8125 6.5625 C-17 4 -17 4 -14.3125 3.125 C-13.549375 3.08375 -12.78625 3.0425 -12 3 C-12 2.34 -12 1.68 -12 1 C-8.28795513 -0.85602244 -4.0512695 -0.44875601 0 0 Z " fill="#F4EE24" transform="translate(71,52)"/>
<path d="M0 0 C3.47732409 2.99211608 5.37308109 4.99511621 6.00390625 9.64453125 C6.27071356 15.38519186 5.60331688 18.85281967 1.6875 23.3125 C-2.26676651 26.88161069 -5.44546747 26.86945002 -10.609375 26.73828125 C-14.85350718 26.0697691 -16.49242452 24.50363804 -19.3125 21.3125 C-21.34600558 15.21198325 -21.33568354 8.51044984 -18.625 2.6875 C-13.39797045 -2.68080062 -6.5565215 -3.34011473 0 0 Z " fill="#EA2029" transform="translate(352.3125,64.6875)"/>
<path d="M0 0 C1.25167969 0.00644531 2.50335938 0.01289062 3.79296875 0.01953125 C6.8125 0.1875 6.8125 0.1875 7.8125 1.1875 C8.11907885 4.24017962 8.09095659 7.30882379 8.125 10.375 C8.15400391 11.22642578 8.18300781 12.07785156 8.21289062 12.95507812 C8.26908626 18.54438235 7.60559794 21.79297392 3.8125 26.1875 C-0.4307447 29.0163298 -4.20484529 28.84018001 -9.1875 28.1875 C-12.83663383 26.0588386 -14.62032345 24.05455901 -16.1875 20.1875 C-16.80437561 15.52521909 -17.28160501 10.47160768 -15.20703125 6.140625 C-10.79357707 0.65436196 -6.7830765 -0.07732004 0 0 Z " fill="#E72129" transform="translate(284.1875,61.8125)"/>
<path d="M0 0 C4.20131882 0.6001884 7.9924065 1.61923249 12 3 C12.08126109 5.72977064 12.14061663 8.4571017 12.1875 11.1875 C12.21263672 11.95642578 12.23777344 12.72535156 12.26367188 13.51757812 C12.34212144 19.61049433 11.06665182 22.81525379 6.8125 27.3125 C3.11105642 29.53336615 0.21855166 29.86752474 -4 29 C-7 27.125 -7 27.125 -9 25 C-9 24.34 -9 23.68 -9 23 C-9.66 23 -10.32 23 -11 23 C-11.65750787 19.15723178 -11.81384304 15.82843322 -11 12 C-8.0793557 8.15266286 -4.6245768 5.16608332 -1 2 C-0.67 1.34 -0.34 0.68 0 0 Z " fill="#FDFEF8" transform="translate(53,81)"/>
<path d="M0 0 C5.29572806 0.15575671 8.46619719 3.41595355 12 7 C14.76528146 10.33251869 15.89946195 12.19569562 16.4375 16.5 C15.96817147 20.25462827 14.90107994 22.75232177 13 26 C12.01 26 11.02 26 10 26 C9.67 26.99 9.34 27.98 9 29 C4.23238247 29.47676175 0.36767485 29.83824 -3.5 26.6875 C-6.53569743 23.42412527 -7.12997076 21.28611134 -7.09765625 16.98828125 C-7.09443359 16.23095703 -7.09121094 15.47363281 -7.08789062 14.69335938 C-7.07951172 13.90767578 -7.07113281 13.12199219 -7.0625 12.3125 C-7.05798828 11.51521484 -7.05347656 10.71792969 -7.04882812 9.89648438 C-7.0370585 7.93095743 -7.01912348 5.96546915 -7 4 C-6.030625 3.525625 -5.06125 3.05125 -4.0625 2.5625 C-1.19522563 1.29806053 -1.19522563 1.29806053 0 0 Z " fill="#FBFDF5" transform="translate(75,81)"/>
<path d="M0 0 C3.75212276 2.01502889 5.63644095 3.45466142 8 7 C8.265625 9.15625 8.265625 9.15625 8.25 11.5 C8.25515625 12.2734375 8.2603125 13.046875 8.265625 13.84375 C8 16 8 16 6 19 C5.34 19 4.68 19 4 19 C4 19.66 4 20.32 4 21 C1.08175756 22.66674321 -0.97594379 23.2432008 -4.328125 23.1953125 C-5.12734375 23.18886719 -5.9265625 23.18242188 -6.75 23.17578125 C-7.575 23.15902344 -8.4 23.14226562 -9.25 23.125 C-10.09046875 23.11597656 -10.9309375 23.10695313 -11.796875 23.09765625 C-13.86470604 23.07415817 -15.93238995 23.03828908 -18 23 C-18.33 20.36 -18.66 17.72 -19 15 C-19.66 15 -20.32 15 -21 15 C-20.45912682 11.21388773 -18.88277668 9.44599233 -16 7 C-15.34 7 -14.68 7 -14 7 C-13.7525 6.401875 -13.505 5.80375 -13.25 5.1875 C-10.191751 -0.16443575 -5.89534366 -1.04302234 0 0 Z " fill="#FDFEF9" transform="translate(101,43)"/>
<path d="M0 0 C18.08489 -1.03342229 18.08489 -1.03342229 22.5625 2.875 C26.01800298 7.30513203 26.29077705 9.37831029 26 15 C25.10371475 18.13699838 23.89479483 19.09017586 21.375 21.25 C17.42292276 23.29922523 14.30330165 24.2110605 10 23 C6.97334454 20.99714852 4.53435052 18.58288063 2 16 C1.45601563 15.53722656 0.91203125 15.07445313 0.3515625 14.59765625 C-1.0625 13.375 -1.0625 13.375 -3 11 C-2.9375 8.5625 -2.9375 8.5625 -2 6 C-1.33036891 4.00099058 -0.66336271 2.00109829 0 0 Z " fill="#FBFDF2" transform="translate(83,69)"/>
<path d="M0 0 C2.63797681 1.67410067 4.02595899 2.74713964 6 5 C6.55945313 5.62390625 7.11890625 6.2478125 7.6953125 6.890625 C9.16283477 8.5697435 10.59369226 10.26954332 12 12 C11.566875 13.051875 11.566875 13.051875 11.125 14.125 C9.97861041 17.05466229 8.98472755 20.01271727 8 23 C-7.79112272 24.20313316 -7.79112272 24.20313316 -12.75390625 21.5 C-15.81403673 18.22904633 -17.35116199 15.24727286 -17.5625 10.75 C-16.8801007 6.20067132 -16.44274032 4.26239778 -13 1.25 C-8.61923146 -0.57532022 -4.67426336 -0.79033438 0 0 Z " fill="#FBFDF6" transform="translate(41,43)"/>
<path d="M0 0 C1.175625 0.02030273 1.175625 0.02030273 2.375 0.04101562 C4.29196782 0.07608211 6.20857751 0.12987928 8.125 0.1875 C9.38164978 3.09350261 10.125 4.98354584 10.125 8.1875 C10.785 8.1875 11.445 8.1875 12.125 8.1875 C12.125 11.1875 12.125 11.1875 10.125 13.4375 C9.12593244 14.35518284 8.12580627 15.27171368 7.125 16.1875 C6.53203125 16.80753906 5.9390625 17.42757812 5.328125 18.06640625 C1.89777179 21.46245592 -0.61013442 23.66075457 -5.5625 23.875 C-9.70076404 23.52538804 -12.02549862 22.29604696 -14.875 19.1875 C-17.56370455 15.6025606 -17.28235444 11.48243269 -16.875 7.1875 C-16.01416931 4.00242646 -15.15916751 3.36642029 -12.34375 1.59375 C-8.03292853 -0.15388033 -4.58819738 -0.15164381 0 0 Z " fill="#FCFEF5" transform="translate(40.875,68.8125)"/>
<path d="M0 0 C1.65322266 0.01740234 1.65322266 0.01740234 3.33984375 0.03515625 C4.99693359 0.04869141 4.99693359 0.04869141 6.6875 0.0625 C7.54214844 0.07410156 8.39679688 0.08570312 9.27734375 0.09765625 C9.27734375 0.75765625 9.27734375 1.41765625 9.27734375 2.09765625 C9.89609375 2.36578125 10.51484375 2.63390625 11.15234375 2.91015625 C13.27734375 4.09765625 13.27734375 4.09765625 15.27734375 7.09765625 C15.91189001 11.25745954 16.22091581 13.65579332 13.88671875 17.22265625 C12.09679556 19.27717678 10.21773708 21.18573829 8.27734375 23.09765625 C7.45234375 24.10828125 6.62734375 25.11890625 5.77734375 26.16015625 C3.27734375 28.09765625 3.27734375 28.09765625 -0.28515625 28.03515625 C-3.07782691 27.2735188 -5.19715124 26.42948712 -7.72265625 25.09765625 C-7.83118548 22.2216317 -7.91020775 19.34974793 -7.97265625 16.47265625 C-8.00617188 15.66441406 -8.0396875 14.85617188 -8.07421875 14.0234375 C-8.16617771 8.36796166 -7.34148522 5.47616306 -3.72265625 1.09765625 C-2.72265625 0.09765625 -2.72265625 0.09765625 0 0 Z " fill="#FCFDF7" transform="translate(75.72265625,24.90234375)"/>
<path d="M0 0 C3.70390021 2.02666238 5.65363011 3.48044516 8 7 C8.22705078 8.99291992 8.22705078 8.99291992 8.1953125 11.23046875 C8.18886719 12.03291016 8.18242188 12.83535156 8.17578125 13.66210938 C8.15902344 14.49548828 8.14226562 15.32886719 8.125 16.1875 C8.11597656 17.03248047 8.10695313 17.87746094 8.09765625 18.74804688 C8.07410703 20.83215243 8.03823647 22.91611217 8 25 C5.66836622 25.67258667 3.3347961 26.33847444 1 27 C0.29101562 27.28101562 -0.41796875 27.56203125 -1.1484375 27.8515625 C-3 28 -3 28 -5.2890625 26.5234375 C-6.05992188 25.81445312 -6.83078125 25.10546875 -7.625 24.375 C-8.40101562 23.68148437 -9.17703125 22.98796875 -9.9765625 22.2734375 C-14.04344406 17.70408409 -14.43857273 13.22372092 -14.32421875 7.3125 C-14 5 -14 5 -12.1875 2.4375 C-8.15308983 -0.21368383 -4.73829656 -0.40155056 0 0 Z " fill="#FCFEF7" transform="translate(57,25)"/>
<path d="M0 0 C0.91381943 0.00561951 1.82763885 0.01123901 2.76914978 0.01702881 C3.73022644 0.01513046 4.6913031 0.01323212 5.6815033 0.01127625 C8.87038738 0.00756024 12.05904557 0.01828519 15.24790955 0.02947998 C17.4574684 0.03067153 19.66702776 0.031125 21.87658691 0.03086853 C26.51284444 0.03243487 31.14902492 0.04073544 35.78526306 0.05413818 C41.73521472 0.07111829 47.68508154 0.07495287 53.63505459 0.074193 C58.19972548 0.07446466 62.76437773 0.07994543 67.32904243 0.08719444 C69.52314678 0.09038218 71.71725325 0.09234876 73.91135979 0.09308815 C76.97597235 0.09525115 80.04049415 0.10399492 83.10508728 0.11468506 C84.01688248 0.11423187 84.92867767 0.11377869 85.86810303 0.11331177 C86.70233795 0.11757675 87.53657288 0.12184174 88.39608765 0.12623596 C89.48313319 0.12874973 89.48313319 0.12874973 90.59213924 0.13131428 C92.5018158 0.25994873 92.5018158 0.25994873 95.5018158 1.25994873 C95.1718158 44.15994873 94.8418158 87.05994873 94.5018158 131.25994873 C93.8418158 131.25994873 93.1818158 131.25994873 92.5018158 131.25994873 C92.5018158 88.68994873 92.5018158 46.11994873 92.5018158 2.25994873 C59.1718158 2.25994873 25.8418158 2.25994873 -8.4981842 2.25994873 C-5.79163219 -0.44660329 -3.67601777 0.01854551 0 0 Z " fill="#EBF5C8" transform="translate(34.49818420410156,0.74005126953125)"/>
<path d="M0 0 C0.32153713 4.01921417 0.20348261 6.55912102 -1.5 10.25 C-5.32897094 14.46186804 -9.0941689 15.81372878 -14.7421875 16.17578125 C-17.17036309 16.18609928 -19.57589005 16.13412084 -22 16 C-22 15.34 -22 14.68 -22 14 C-22.66 14 -23.32 14 -24 14 C-24.33 11.69 -24.66 9.38 -25 7 C-20.72983681 3.99662393 -16.85004186 3.17735961 -11.8125 2.375 C-7.9303938 1.72510154 -3.77147041 0 0 0 Z " fill="#E42129" transform="translate(203,77)"/>
<path d="M0 0 C0.66 0 1.32 0 2 0 C2.28594249 7.43450479 2.28594249 7.43450479 0 11 C-5.07277656 15.15442908 -10.31373372 16.78050128 -16.8203125 16.42578125 C-19 16 -19 16 -21.6875 14.25 C-23 12 -23 12 -22.9375 9.9375 C-21.37107115 6.70021372 -19.87634824 5.38199795 -16.5625 3.9375 C-12.24754655 2.80198593 -7.92244633 2.1212989 -3.51171875 1.46484375 C-1.06926893 1.25814246 -1.06926893 1.25814246 0 0 Z " fill="#E52027" transform="translate(464,77)"/>
<path d="M0 0 C2.875 0.5 2.875 0.5 4.6875 1.5625 C6.55955497 4.61690548 6.875 6.93116591 6.875 10.5 C4.59772657 13.64799562 3.14594386 15.22101232 -0.6875 16.0625 C-3.97842997 15.30305462 -5.12758579 14.21077642 -7.125 11.5 C-8.1875 8.5625 -8.1875 8.5625 -8.125 5.5 C-5.65353131 2.05492243 -4.22334071 0.67573451 0 0 Z " fill="#C8383A" transform="translate(480.125,33.5)"/>
<path d="M0 0 C0.98657089 -0.00073013 1.97314178 -0.00146027 2.98960876 -0.00221252 C6.21484495 0.0012403 9.4385938 0.03999246 12.66357422 0.0793457 C14.91371879 0.08868201 17.16387358 0.09579426 19.41403198 0.1007843 C25.30953494 0.11978946 31.20441282 0.16883471 37.09967041 0.2243042 C43.12609402 0.2756366 49.15261956 0.29832818 55.17919922 0.32348633 C66.98415994 0.37695947 78.78865866 0.4621937 90.59326172 0.56762695 C90.59326172 0.89762695 90.59326172 1.22762695 90.59326172 1.56762695 C40.10326172 2.06262695 40.10326172 2.06262695 -11.40673828 2.56762695 C-11.40673828 3.22762695 -11.40673828 3.88762695 -11.40673828 4.56762695 C-12.72673828 4.56762695 -14.04673828 4.56762695 -15.40673828 4.56762695 C-15.40673828 5.22762695 -15.40673828 5.88762695 -15.40673828 6.56762695 C-18.05960228 9.76666884 -19.63479242 11.37828174 -23.71923828 12.38012695 C-24.60611328 12.44200195 -25.49298828 12.50387695 -26.40673828 12.56762695 C-19.46356017 3.24915107 -11.52395887 -0.22803025 0 0 Z " fill="#A7C44E" transform="translate(36.40673828125,2.432373046875)"/>
<path d="M0 0 C0.33 0 0.66 0 1 0 C1.09364371 14.05633214 1.16381061 28.11261556 1.20724869 42.16919613 C1.2280996 48.69664792 1.25637234 55.22388974 1.30175781 61.7512207 C1.34530354 68.05359008 1.36915588 74.35575783 1.37950897 80.65826607 C1.38688459 83.05956762 1.40128741 85.46085847 1.42292023 87.8620739 C1.45206923 91.23242691 1.45595106 94.60195279 1.45410156 97.97241211 C1.47567322 99.45272163 1.47567322 99.45272163 1.49768066 100.9629364 C1.45202976 108.67994579 -0.20036544 115.4303203 -5.75 121.0625 C-6.4925 121.701875 -7.235 122.34125 -8 123 C-8.66 122.67 -9.32 122.34 -10 122 C-9.51789063 121.43152344 -9.03578125 120.86304687 -8.5390625 120.27734375 C-7.90742188 119.50519531 -7.27578125 118.73304687 -6.625 117.9375 C-5.99851562 117.18339844 -5.37203125 116.42929688 -4.7265625 115.65234375 C-0.61882863 109.34204669 -0.69746574 102.77002197 -0.68115234 95.47485352 C-0.67110672 94.43995285 -0.6610611 93.40505219 -0.65071106 92.33879089 C-0.61994638 88.93550139 -0.60286242 85.53229033 -0.5859375 82.12890625 C-0.56722048 79.76235787 -0.54764666 77.39581613 -0.5272522 75.02928162 C-0.47598163 68.81348589 -0.43632861 62.59766853 -0.39910889 56.3817749 C-0.35903751 50.03375928 -0.30795944 43.68583323 -0.2578125 37.33789062 C-0.16111324 24.89199005 -0.07668916 12.44603884 0 0 Z " fill="#FFEEEB" transform="translate(513,3)"/>
<path d="M0 0 C6.42372261 -0.45078755 9.73666695 0.21040021 15 4 C16.93146559 7.02770282 17.34484346 9.70135047 17.625 13.25 C17.69976562 14.14203125 17.77453125 15.0340625 17.8515625 15.953125 C17.90054688 16.62859375 17.94953125 17.3040625 18 18 C18.73605469 18.04898438 19.47210938 18.09796875 20.23046875 18.1484375 C21.20628906 18.22320312 22.18210937 18.29796875 23.1875 18.375 C24.15042969 18.44460937 25.11335938 18.51421875 26.10546875 18.5859375 C29.01508938 19.00215853 31.32890774 19.79874096 34 21 C33.34 22.32 32.68 23.64 32 25 C30.7625 24.01 30.7625 24.01 29.5 23 C25.5218269 20.36669393 22.70598109 20.4024151 18 21 C15.22487879 22.60336043 15.22487879 22.60336043 13 25 C8 30 8 30 5 32 C4.01 31.34 3.02 30.68 2 30 C2.51949219 29.56429687 3.03898437 29.12859375 3.57421875 28.6796875 C11.00856088 22.92055036 11.00856088 22.92055036 15.4765625 15.0234375 C15.72680385 12.61893619 15.72680385 12.61893619 15 9 C12.62499209 6.12359384 12.62499209 6.12359384 10 4 C10 3.34 10 2.68 10 2 C6.7 2 3.4 2 0 2 C0 1.34 0 0.68 0 0 Z " fill="#AEC95E" transform="translate(75,23)"/>
<path d="M0 0 C1.65 0 3.3 0 5 0 C3.7934375 0.9590625 3.7934375 0.9590625 2.5625 1.9375 C0.7249496 3.40603502 0.7249496 3.40603502 -1 5 C-1.40590225 10.0973771 -1.82514505 15.57803383 1 20 C3.22657858 22.14430316 5.56116005 24.10239993 8 26 C7.34 26.99 6.68 27.98 6 29 C4.62437146 27.71034824 3.29233607 26.37310707 2 25 C2 24.34 2 23.68 2 23 C1.38125 22.71125 0.7625 22.4225 0.125 22.125 C-2 21 -2 21 -4 19 C-6.30164566 18.68051829 -6.30164566 18.68051829 -8.875 18.75 C-9.73867188 18.74484375 -10.60234375 18.7396875 -11.4921875 18.734375 C-14.10473577 19.01109351 -15.7500088 19.6814005 -18 21 C-18 20.01 -18 19.02 -18 18 C-17.01 18 -16.02 18 -15 18 C-15 17.34 -15 16.68 -15 16 C-13.741875 15.979375 -12.48375 15.95875 -11.1875 15.9375 C-10.47980469 15.92589844 -9.77210937 15.91429687 -9.04296875 15.90234375 C-7 16 -7 16 -4 17 C-4.01160156 16.24074219 -4.02320313 15.48148438 -4.03515625 14.69921875 C-4.04417969 13.70535156 -4.05320312 12.71148437 -4.0625 11.6875 C-4.07410156 10.70136719 -4.08570313 9.71523438 -4.09765625 8.69921875 C-4 6 -4 6 -3 3 C-2.34 3 -1.68 3 -1 3 C-0.67 2.01 -0.34 1.02 0 0 Z " fill="#AFCB63" transform="translate(45,25)"/>
<path d="M0 0 C0.66 0.66 1.32 1.32 2 2 C-1.63 2 -5.26 2 -9 2 C-9.66 3.32 -10.32 4.64 -11 6 C-12.03364834 6.92897509 -13.09749968 7.82533823 -14.1875 8.6875 C-16.28780681 10.66575508 -16.96260861 11.46869444 -17.16796875 14.38671875 C-16.87946997 17.16448658 -16.87946997 17.16448658 -16 21 C-10.72 21.33 -5.44 21.66 0 22 C0 22.33 0 22.66 0 23 C-5.94 23 -11.88 23 -18 23 C-18.33 20.36 -18.66 17.72 -19 15 C-19.66 15 -20.32 15 -21 15 C-20.45912682 11.21388773 -18.88277668 9.44599233 -16 7 C-15.34 7 -14.68 7 -14 7 C-13.7525 6.401875 -13.505 5.80375 -13.25 5.1875 C-9.97395555 -0.54557779 -6.09869743 -0.49183044 0 0 Z " fill="#EFF8D0" transform="translate(101,43)"/>
<path d="M0 0 C1.65322266 0.01740234 1.65322266 0.01740234 3.33984375 0.03515625 C4.99693359 0.04869141 4.99693359 0.04869141 6.6875 0.0625 C7.54214844 0.07410156 8.39679688 0.08570312 9.27734375 0.09765625 C9.27734375 0.75765625 9.27734375 1.41765625 9.27734375 2.09765625 C9.93734375 2.42765625 10.59734375 2.75765625 11.27734375 3.09765625 C10.28734375 3.09765625 9.29734375 3.09765625 8.27734375 3.09765625 C8.27734375 2.43765625 8.27734375 1.77765625 8.27734375 1.09765625 C6.45203125 1.19046875 6.45203125 1.19046875 4.58984375 1.28515625 C3.56310547 1.33736328 3.56310547 1.33736328 2.515625 1.390625 C-1.01201506 2.50494062 -2.49393748 4.16673842 -4.72265625 7.09765625 C-5.44131852 10.03861581 -5.51238623 12.89186382 -5.53515625 15.91015625 C-5.56029297 16.69841797 -5.58542969 17.48667969 -5.61132812 18.29882812 C-5.66988606 20.23123998 -5.69921113 22.16449952 -5.72265625 24.09765625 C-2.42265625 24.75765625 0.87734375 25.41765625 4.27734375 26.09765625 C3.94734375 26.75765625 3.61734375 27.41765625 3.27734375 28.09765625 C-0.83839996 27.62276275 -4.08648969 27.07663185 -7.72265625 25.09765625 C-7.83118548 22.2216317 -7.91020775 19.34974793 -7.97265625 16.47265625 C-8.00617188 15.66441406 -8.0396875 14.85617188 -8.07421875 14.0234375 C-8.16617771 8.36796166 -7.34148522 5.47616306 -3.72265625 1.09765625 C-2.72265625 0.09765625 -2.72265625 0.09765625 0 0 Z " fill="#EFF9D0" transform="translate(75.72265625,24.90234375)"/>
<path d="M0 0 C0.495 0.99 0.495 0.99 1 2 C1.99 2.33 2.98 2.66 4 3 C4 3.66 4 4.32 4 5 C3.34 5 2.68 5 2 5 C2 5.66 2 6.32 2 7 C2.66 7 3.32 7 4 7 C5.625 9 5.625 9 7 11 C6.34 11.66 5.68 12.32 5 13 C3.9790625 11.8553125 3.9790625 11.8553125 2.9375 10.6875 C-3.92802281 4.406277 -11.82260249 3.77684846 -20.70703125 3.83203125 C-25.88657593 4.09623104 -30.91945814 4.99109807 -36 6 C-36 5.34 -36 4.68 -36 4 C-30.01631659 1.33358669 -24.03477075 1.77685274 -17.625 1.875 C-15.94857422 1.88853516 -15.94857422 1.88853516 -14.23828125 1.90234375 C-11.49196538 1.92581654 -8.74609528 1.95865272 -6 2 C-6 2.66 -6 3.32 -6 4 C-4.02 4 -2.04 4 0 4 C0 2.68 0 1.36 0 0 Z " fill="#D23338" transform="translate(473,45)"/>
<path d="M0 0 C0.77988281 0.00064453 1.55976563 0.00128906 2.36328125 0.00195312 C8.10942293 0.04692293 8.10942293 0.04692293 9.25 1.1875 C9.50228862 4.22089961 9.43523613 7.26986053 9.4375 10.3125 C9.44974609 11.15554687 9.46199219 11.99859375 9.47460938 12.8671875 C9.48665551 18.03899324 8.92858734 22.29106736 7.25 27.1875 C5.6 27.5175 3.95 27.8475 2.25 28.1875 C2.90484375 27.23746094 3.5596875 26.28742188 4.234375 25.30859375 C6.88014361 20.67849868 6.70610257 16.46201703 6.5 11.25 C6.48195313 10.37537109 6.46390625 9.50074219 6.4453125 8.59960938 C6.39858353 6.46175892 6.32685441 4.32447955 6.25 2.1875 C4.04229195 2.10584504 1.83369575 2.04801512 -0.375 2 C-1.60476563 1.96519531 -2.83453125 1.93039063 -4.1015625 1.89453125 C-8.01407664 2.2087053 -10.39070218 3.21843467 -13.75 5.1875 C-13.75 4.1975 -13.75 3.2075 -13.75 2.1875 C-9.1432016 -0.14353999 -5.03370362 -0.08064112 0 0 Z " fill="#FEE3E0" transform="translate(284.75,60.8125)"/>
<path d="M0 0 C0.32153713 4.01921417 0.20348261 6.55912102 -1.5 10.25 C-5.32897094 14.46186804 -9.0941689 15.81372878 -14.7421875 16.17578125 C-17.17036309 16.18609928 -19.57589005 16.13412084 -22 16 C-22 15.34 -22 14.68 -22 14 C-21.27554688 13.93941406 -20.55109375 13.87882812 -19.8046875 13.81640625 C-14.82883467 13.38516567 -9.91319609 12.92952359 -5 12 C-5.12375 10.72125 -5.2475 9.4425 -5.375 8.125 C-5.44460937 7.40570313 -5.51421875 6.68640625 -5.5859375 5.9453125 C-5.86374749 3.77331755 -5.86374749 3.77331755 -8 2 C-2.25 0 -2.25 0 0 0 Z " fill="#D4353A" transform="translate(203,77)"/>
<path d="M0 0 C1.65 0 3.3 0 5 0 C5 0.99 5 1.98 5 3 C7.97 3.495 7.97 3.495 11 4 C11 4.66 11 5.32 11 6 C10.01 6 9.02 6 8 6 C8 6.99 8 7.98 8 9 C1.6 9.36923077 1.6 9.36923077 -1.4375 7.5 C-1.953125 7.005 -2.46875 6.51 -3 6 C-2.67 4.68 -2.34 3.36 -2 2 C-1.34 2 -0.68 2 0 2 C0 1.34 0 0.68 0 0 Z " fill="#EB1E26" transform="translate(446,83)"/>
<path d="M0 0 C0.99 0.66 1.98 1.32 3 2 C2.67 3.65 2.34 5.3 2 7 C-0.64 7.66 -3.28 8.32 -6 9 C-6 8.34 -6 7.68 -6 7 C-5.030625 6.71125 -4.06125 6.4225 -3.0625 6.125 C0.10664203 5.35785318 0.10664203 5.35785318 1 3 C0.401875 3.309375 -0.19625 3.61875 -0.8125 3.9375 C-3 5 -3 5 -6 6 C-6 5.34 -6 4.68 -6 4 C-10.37143605 2.71428351 -12.77191467 3.53311325 -17 5 C-20.375 5.125 -20.375 5.125 -23 5 C-15.41828719 0.89323889 -8.65127369 -1.07616813 0 0 Z " fill="#D53237" transform="translate(461,60)"/>
<path d="M0 0 C0.928125 0.0825 1.85625 0.165 2.8125 0.25 C3.72308531 3.32322544 3.90136184 6.05097361 3.8125 9.25 C0.8425 9.91 -2.1275 10.57 -5.1875 11.25 C-5.5175 10.26 -5.8475 9.27 -6.1875 8.25 C-5.5275 7.59 -4.8675 6.93 -4.1875 6.25 C-4.8475 5.59 -5.5075 4.93 -6.1875 4.25 C-4.36434338 1.00883268 -3.82500054 0.30000004 0 0 Z " fill="#EB1E28" transform="translate(194.1875,79.75)"/>
<path d="M0 0 C2.875 0.5 2.875 0.5 4.6875 1.5625 C6.55955497 4.61690548 6.875 6.93116591 6.875 10.5 C4.59772657 13.64799562 3.14594386 15.22101232 -0.6875 16.0625 C-3.97842997 15.30305462 -5.12758579 14.21077642 -7.125 11.5 C-8.1875 8.5625 -8.1875 8.5625 -8.125 5.5 C-5.65353131 2.05492243 -4.22334071 0.67573451 0 0 Z M-5 4.1875 C-6.42624388 7.11922354 -6.16730389 8.45326554 -5.125 11.5 C-3.24361241 13.78930236 -3.24361241 13.78930236 -0.1875 13.875 C2.91227981 13.78568869 2.91227981 13.78568869 4.8125 11.8125 C6.16469442 8.86948861 5.98568406 7.51471387 4.875 4.5 C1.18248762 2.03832508 -1.47652342 1.01637108 -5 4.1875 Z " fill="#FEB0A8" transform="translate(480.125,33.5)"/>
<path d="M0 0 C-0.33 0.66 -0.66 1.32 -1 2 C-3.97 2 -6.94 2 -10 2 C-10 2.66 -10 3.32 -10 4 C-10.825 4.61875 -11.65 5.2375 -12.5 5.875 C-14.71483786 7.92762438 -14.99142026 8.92258049 -15.33203125 11.99609375 C-15.31427626 15.0108908 -15.21579801 17.99321435 -15 21 C-14.34 21 -13.68 21 -13 21 C-13 21.66 -13 22.32 -13 23 C-12.01 23 -11.02 23 -10 23 C-9.67 22.34 -9.34 21.68 -9 21 C-9 25 -9 25 -10 27 C-13.87340853 25.53077607 -15.17219922 23.66587011 -17 20 C-17.83297987 14.4242879 -17.70034896 9.50445332 -15.3125 4.375 C-10.63499118 -0.42892798 -6.3619054 -0.21565781 0 0 Z " fill="#C9282E" transform="translate(349,63)"/>
<path d="M0 0 C0.67224609 -0.00773437 1.34449219 -0.01546875 2.03710938 -0.0234375 C5.72172836 -0.00880148 7.29365148 0.15410098 10.4375 2.25 C12.42549818 2.95164642 14.42448517 3.62372872 16.4375 4.25 C16.4375 4.91 16.4375 5.57 16.4375 6.25 C15.87804687 6.0334375 15.31859375 5.816875 14.7421875 5.59375 C6.6010255 2.76659406 -2.31908415 1.37447049 -10.609375 4.33984375 C-13.01505751 5.53920859 -15.28978332 6.81781283 -17.5625 8.25 C-18.5525 8.745 -18.5525 8.745 -19.5625 9.25 C-19.5625 8.26 -19.5625 7.27 -19.5625 6.25 C-16.89583333 4.91666667 -14.22916667 3.58333333 -11.5625 2.25 C-10.97082031 1.88132813 -10.37914062 1.51265625 -9.76953125 1.1328125 C-6.49951031 -0.17519588 -3.50408029 -0.01370119 0 0 Z " fill="#D13035" transform="translate(344.5625,46.75)"/>
<path d="M0 0 C4 1.33333333 8 2.66666667 12 4 C19.39005127 4.31926524 26.69395786 4.16896674 34 3 C33.67 3.99 33.34 4.98 33 6 C20.89750841 8.79640904 11.0256638 7.20604699 0 2 C0 1.34 0 0.68 0 0 Z " fill="#D0272E" transform="translate(166,100)"/>
<path d="M0 0 C0.91007812 0.00902344 1.82015625 0.01804688 2.7578125 0.02734375 C3.80582031 0.04474609 3.80582031 0.04474609 4.875 0.0625 C2.875 2.0625 2.875 2.0625 0.7109375 2.2578125 C-0.50722656 2.22300781 -0.50722656 2.22300781 -1.75 2.1875 C-2.56726562 2.16945312 -3.38453125 2.15140625 -4.2265625 2.1328125 C-4.85304688 2.10960937 -5.47953125 2.08640625 -6.125 2.0625 C-6.125 2.7225 -6.125 3.3825 -6.125 4.0625 C-6.785 4.0625 -7.445 4.0625 -8.125 4.0625 C-11.07037841 9.53248848 -12.38690229 14.91168578 -13.125 21.0625 C-15.61061848 17.33407228 -15.64621169 14.37878433 -15.125 10.0625 C-13.9375 6.625 -13.9375 6.625 -12.125 4.0625 C-9.4375 3.1875 -9.4375 3.1875 -7.125 3.0625 C-7.125 2.4025 -7.125 1.7425 -7.125 1.0625 C-4.60024538 -0.19987731 -2.81299534 -0.03606404 0 0 Z " fill="#DDE72A" transform="translate(66.125,51.9375)"/>
<path d="M0 0 C0.66 0 1.32 0 2 0 C2 6.93 2 13.86 2 21 C-0.64 20.67 -3.28 20.34 -6 20 C-6 19.67 -6 19.34 -6 19 C-4.35 18.67 -2.7 18.34 -1 18 C-1.01160156 16.78441406 -1.02320313 15.56882812 -1.03515625 14.31640625 C-1.04453278 12.73177236 -1.05363313 11.14713682 -1.0625 9.5625 C-1.07087891 8.76005859 -1.07925781 7.95761719 -1.08789062 7.13085938 C-1.0965143 5.08704779 -1.0522815 3.04316098 -1 1 C-0.67 0.67 -0.34 0.34 0 0 Z " fill="#DC3439" transform="translate(291,30)"/>
<path d="M0 0 C0.66 0.99 1.32 1.98 2 3 C1.34773438 2.85820313 0.69546875 2.71640625 0.0234375 2.5703125 C-5.09483745 1.68581463 -5.09483745 1.68581463 -10.03515625 2.8828125 C-11.99211257 4.5020435 -12.97875882 5.66200955 -14 8 C-14.18119926 11.77929876 -13.72523883 15.29468891 -13 19 C-15.28218629 17.28836028 -16.82688375 15.98233409 -17.3359375 13.09375 C-17.40553867 9.36312713 -17.36263285 6.03767081 -15 3 C-10.76842115 -0.70263149 -5.38519611 -0.9721947 0 0 Z " fill="#F6FDE4" transform="translate(41,43)"/>
<path d="M0 0 C0 0.66 0 1.32 0 2 C-8.60790266 5.68910114 -19.89911216 6.90105422 -29 4 C-29 3.34 -29 2.68 -29 2 C-27.72125 2.02320312 -26.4425 2.04640625 -25.125 2.0703125 C-23.41667255 2.08908533 -21.70833873 2.10728389 -20 2.125 C-19.16082031 2.14175781 -18.32164062 2.15851563 -17.45703125 2.17578125 C-11.43069267 2.22249705 -5.80735687 0 0 0 Z " fill="#D32227" transform="translate(466,102)"/>
<path d="M0 0 C2.97 0.495 2.97 0.495 6 1 C6 1.33 6 1.66 6 2 C4.35 2 2.7 2 1 2 C0.9071875 2.59554687 0.814375 3.19109375 0.71875 3.8046875 C-0.16657097 6.50876569 -1.27960238 7.38690187 -3.5 9.125 C-6.1880384 11.19887681 -6.1880384 11.19887681 -8 14 C-8.66 14 -9.32 14 -10 14 C-10 16.64 -10 19.28 -10 22 C-9.34 22 -8.68 22 -8 22 C-8.33 22.99 -8.66 23.98 -9 25 C-9 24.34 -9 23.68 -9 23 C-9.66 23 -10.32 23 -11 23 C-11.65750787 19.15723178 -11.81384304 15.82843322 -11 12 C-8.0793557 8.15266286 -4.6245768 5.16608332 -1 2 C-0.67 1.34 -0.34 0.68 0 0 Z " fill="#F4FBDA" transform="translate(53,81)"/>
<path d="M0 0 C0.66 0 1.32 0 2 0 C-0.87624572 6.47155288 -4.69973884 10.02169472 -11 13 C-11.99 12.67 -12.98 12.34 -14 12 C-11.83394852 8.01446527 -10.85865184 6.27115321 -6.4375 4.875 C-5.303125 4.58625 -4.16875 4.2975 -3 4 C-1.19651922 1.98682781 -1.19651922 1.98682781 0 0 Z " fill="#DB2229" transform="translate(507,117)"/>
<path d="M0 0 C1.32 0.33 2.64 0.66 4 1 C3.01 1 2.02 1 1 1 C1.11437651 3.72998676 1.24111406 6.4584582 1.375 9.1875 C1.4059375 9.95642578 1.436875 10.72535156 1.46875 11.51757812 C1.68616111 15.73897711 2.09743072 19.14072328 4 23 C3.278125 22.773125 2.55625 22.54625 1.8125 22.3125 C-1.76697202 21.91478089 -3.05048455 23.08680079 -6 25 C-6.66 24.67 -7.32 24.34 -8 24 C-7.38125 23.401875 -6.7625 22.80375 -6.125 22.1875 C-3.86323046 19.99188856 -3.86323046 19.99188856 -2 17 C-1.67 17.33 -1.34 17.66 -1 18 C-0.505 9.09 -0.505 9.09 0 0 Z " fill="#BAD373" transform="translate(67,84)"/>
<path d="M0 0 C-7.11997514 4.54887301 -13.65553236 4.59532468 -22 4 C-24.91081631 3.25607666 -27.26827283 2.28551867 -30 1 C-27.49589513 -0.25205243 -26.19935991 0.04184102 -23.4296875 0.33984375 C-22.53378906 0.43330078 -21.63789063 0.52675781 -20.71484375 0.62304688 C-19.30912109 0.77870117 -19.30912109 0.77870117 -17.875 0.9375 C-16.93011719 1.03740234 -15.98523438 1.13730469 -15.01171875 1.24023438 C-12.67385945 1.48818915 -10.3367311 1.74166315 -8 2 C-8 1.34 -8 0.68 -8 0 C-4.94736336 -0.98120464 -3.05263664 -0.98120464 0 0 Z " fill="#FBC2C3" transform="translate(296,101)"/>
<path d="M0 0 C5.94 0 11.88 0 18 0 C18 0.99 18 1.98 18 3 C12.06 3 6.12 3 0 3 C0 2.01 0 1.02 0 0 Z " fill="#AFCA61" transform="translate(83,66)"/>
<path d="M0 0 C3.67135978 0.86422043 6.29611828 1.92887564 8.4375 5.1875 C8.623125 5.785625 8.80875 6.38375 9 7 C4.28176796 5.16513198 4.28176796 5.16513198 2.20703125 3.94921875 C-0.64117764 2.72423687 -2.96990545 2.69899663 -6.0625 2.6875 C-7.10535156 2.67074219 -8.14820313 2.65398438 -9.22265625 2.63671875 C-12.35261161 3.04612219 -13.02315234 3.66596491 -15 6 C-15.66 6 -16.32 6 -17 6 C-13.69571043 -1.62528361 -7.30022173 -0.61306772 0 0 Z " fill="#D33037" transform="translate(418,47)"/>
<path d="M0 0 C2 2 2 2 2.1953125 3.9453125 C2.13020833 5.96354167 2.06510417 7.98177083 2 10 C1.34 9.67 0.68 9.34 0 9 C-0.391875 9.928125 -0.78375 10.85625 -1.1875 11.8125 C-3.15247154 15.2681396 -4.36176301 16.49146271 -8 18 C-10.16015625 17.56640625 -10.16015625 17.56640625 -12 17 C-10.9275 16.319375 -9.855 15.63875 -8.75 14.9375 C-4.02050537 11.55792185 -1.70318315 7.754134 -0.25 2.0625 C-0.1675 1.381875 -0.085 0.70125 0 0 Z " fill="#D63137" transform="translate(481,83)"/>
<path d="M0 0 C-0.66 0 -1.32 0 -2 0 C-2 0.99 -2 1.98 -2 3 C-4.31 2.67 -6.62 2.34 -9 2 C-9 2.66 -9 3.32 -9 4 C-9.99 4.495 -9.99 4.495 -11 5 C-10.67 6.32 -10.34 7.64 -10 9 C-6.7 9.66 -3.4 10.32 0 11 C0 11.33 0 11.66 0 12 C-9.04562269 12.62145499 -9.04562269 12.62145499 -12.6875 10.25 C-14 8 -14 8 -13.9375 5.9375 C-12.24948497 2.4489356 -10.65175062 1.27734069 -7.0625 -0.25 C-4.10454705 -0.97439664 -2.78479728 -1.07107588 0 0 Z " fill="#CC353A" transform="translate(455,81)"/>
<path d="M0 0 C2.73338837 4.10008256 2.3309631 7.30982464 2.3125 12.125 C2.32861328 12.94226563 2.34472656 13.75953125 2.36132812 14.6015625 C2.36629789 20.88334827 1.81594224 27.92050511 -2.60424805 32.75439453 C-3.06484619 33.16544434 -3.52544434 33.57649414 -4 34 C-3.25 28.25 -3.25 28.25 -1 26 C0.16519674 20.36455164 0.11920203 14.79812859 0.0625 9.0625 C0.05798828 8.18787109 0.05347656 7.31324219 0.04882812 6.41210938 C0.03714834 4.27470953 0.01921689 2.13734537 0 0 Z " fill="#FDD8D5" transform="translate(480,61)"/>
<path d="M0 0 C1.0625 1.875 1.0625 1.875 2 4 C1.67 4.66 1.34 5.32 1 6 C0.34 6 -0.32 6 -1 6 C-1.37125 6.928125 -1.7425 7.85625 -2.125 8.8125 C-4.34142124 12.58041611 -5.91108732 13.58139764 -10 15 C-12.19140625 14.56640625 -12.19140625 14.56640625 -14 14 C-13.40832031 13.57589844 -12.81664062 13.15179688 -12.20703125 12.71484375 C-7.08166998 8.91053808 -3.41398103 5.39629259 0 0 Z " fill="#D73B41" transform="translate(371,88)"/>
<path d="M0 0 C-0.53109375 0.38671875 -1.0621875 0.7734375 -1.609375 1.171875 C-3.06743352 2.24679406 -4.51504687 3.33599334 -5.953125 4.4375 C-7.44365793 5.57531139 -8.963792 6.6746544 -10.5 7.75 C-12.99073364 11.48610045 -12.29927562 15.6438771 -12 20 C-14.68186667 15.9772 -14.57140016 12.72471177 -14 8 C-12.625 5.4375 -12.625 5.4375 -11 4 C-10.34 4 -9.68 4 -9 4 C-9 3.34 -9 2.68 -9 2 C-5.59159007 -0.55630744 -4.03546861 -1.28479663 0 0 Z " fill="#FBCECC" transform="translate(438,74)"/>
<path d="M0 0 C0.84498047 0.34804687 0.84498047 0.34804687 1.70703125 0.703125 C1.04703125 0.703125 0.38703125 0.703125 -0.29296875 0.703125 C-0.29296875 1.363125 -0.29296875 2.023125 -0.29296875 2.703125 C-0.8859375 2.80753906 -1.47890625 2.91195312 -2.08984375 3.01953125 C-6.06366143 4.25254205 -8.33572558 7.12124207 -10.29296875 10.703125 C-10.77721599 14.10273825 -10.66311988 17.29636371 -10.29296875 20.703125 C-10.95296875 20.373125 -11.61296875 20.043125 -12.29296875 19.703125 C-12.32005442 18.09905172 -12.33940358 16.4948465 -12.35546875 14.890625 C-12.36707031 13.99730469 -12.37867188 13.10398437 -12.390625 12.18359375 C-12.25965434 8.85693908 -11.78293834 7.17619908 -9.3671875 4.84375 C-8.57957031 4.21984375 -7.79195312 3.5959375 -6.98046875 2.953125 C-5.81064453 2.00179687 -5.81064453 2.00179687 -4.6171875 1.03125 C-2.29296875 -0.296875 -2.29296875 -0.296875 0 0 Z " fill="#FCD6D3" transform="translate(173.29296875,73.296875)"/>
<path d="M0 0 C0.33 0 0.66 0 1 0 C1 3.96 1 7.92 1 12 C1.66 12.33 2.32 12.66 3 13 C2.34 14.65 1.68 16.3 1 18 C1.66 18 2.32 18 3 18 C3 18.66 3 19.32 3 20 C2.01 20 1.02 20 0 20 C-0.2475 20.969375 -0.495 21.93875 -0.75 22.9375 C-1.1625 23.948125 -1.575 24.95875 -2 26 C-4.125 26.875 -4.125 26.875 -6 27 C-4.99088542 25.33984375 -3.98177083 23.6796875 -2.97265625 22.01953125 C-0.73329212 17.36992781 -0.73371281 12.26196541 -0.4375 7.1875 C-0.37272461 6.14819336 -0.37272461 6.14819336 -0.30664062 5.08789062 C-0.20138547 3.39211314 -0.10027137 1.69607948 0 0 Z " fill="#DD4348" transform="translate(219,68)"/>
<path d="M0 0 C1.24040039 0.01353516 1.24040039 0.01353516 2.50585938 0.02734375 C4.52486708 0.05068488 6.54372356 0.08654712 8.5625 0.125 C8.5625 0.455 8.5625 0.785 8.5625 1.125 C7.40492187 1.17398438 6.24734375 1.22296875 5.0546875 1.2734375 C3.5156033 1.34851478 1.9765419 1.42406043 0.4375 1.5 C-0.70332031 1.54640625 -0.70332031 1.54640625 -1.8671875 1.59375 C-6.38382158 1.827369 -10.17902347 2.45154117 -14.4375 4.125 C-15.0975 8.085 -15.7575 12.045 -16.4375 16.125 C-16.7675 16.125 -17.0975 16.125 -17.4375 16.125 C-17.46455729 14.35425083 -17.48392195 12.58338289 -17.5 10.8125 C-17.51160156 9.82636719 -17.52320312 8.84023437 -17.53515625 7.82421875 C-17.4375 5.125 -17.4375 5.125 -16.4375 2.125 C-10.95009308 -0.05265689 -5.8434796 -0.12242584 0 0 Z " fill="#B9D372" transform="translate(40.4375,67.875)"/>
<path d="M0 0 C0.66 0.33 1.32 0.66 2 1 C1.01 1.33 0.02 1.66 -1 2 C-1 2.66 -1 3.32 -1 4 C-2.32 4 -3.64 4 -5 4 C-5 4.66 -5 5.32 -5 6 C-7.652864 9.19904189 -9.22805414 10.81065479 -13.3125 11.8125 C-14.199375 11.874375 -15.08625 11.93625 -16 12 C-11.59194113 6.08392099 -7.05663066 2.4368221 0 0 Z " fill="#ABC856" transform="translate(26,3)"/>
<path d="M0 0 C0.33 0 0.66 0 1 0 C1.08636719 0.73605469 1.17273437 1.47210938 1.26171875 2.23046875 C2.15762469 8.45249444 2.91361822 11.90608295 8 16 C9.02813611 17.31175986 10.04084432 18.6369893 11 20 C10.34 20.66 9.68 21.32 9 22 C7.62437146 20.71034824 6.29233607 19.37310707 5 18 C5 17.34 5 16.68 5 16 C4.360625 15.773125 3.72125 15.54625 3.0625 15.3125 C1 14 1 14 0.25 11.9375 C-0.08919335 7.95197808 -0.07837299 3.99702263 0 0 Z " fill="#C0D37F" transform="translate(42,32)"/>
<path d="M0 0 C1.60495567 0.11442461 3.20898119 0.24194694 4.8125 0.375 C5.70582031 0.44460937 6.59914063 0.51421875 7.51953125 0.5859375 C10 1 10 1 13 3 C13.546875 5.09375 13.546875 5.09375 13.75 7.5 C13.82734375 8.2940625 13.9046875 9.088125 13.984375 9.90625 C14 12 14 12 13 14 C12.34 14 11.68 14 11 14 C11.020625 12.9275 11.04125 11.855 11.0625 10.75 C11.0142016 7.85209576 10.86844115 5.71387859 10 3 C4.84359528 2.42399311 4.84359528 2.42399311 0.1328125 4.11328125 C-1.30861002 5.33745588 -2.66278229 6.66278229 -4 8 C-2.87548273 5.0280615 -1.77706209 2.66559313 0 0 Z " fill="#CF2328" transform="translate(475,32)"/>
<path d="M0 0 C-1.32 0.33 -2.64 0.66 -4 1 C-4.33 2.32 -4.66 3.64 -5 5 C-8.71599191 5.20086443 -9.77208445 5.1519437 -13 3 C-13.33 4.65 -13.66 6.3 -14 8 C-14.33 8 -14.66 8 -15 8 C-15.3125 5.6875 -15.3125 5.6875 -15 3 C-9.92349138 -0.9483956 -6.15748067 -1.25948468 0 0 Z " fill="#DB373E" transform="translate(193,81)"/>
<path d="M0 0 C0.66 0.33 1.32 0.66 2 1 C1.67 1.99 1.34 2.98 1 4 C-0.65 4.33 -2.3 4.66 -4 5 C-4.99 8.3 -5.98 11.6 -7 15 C-7.66 15 -8.32 15 -9 15 C-8.44600983 11.02973711 -7.50059058 7.70145675 -6 4 C-6 3.01 -6 2.02 -6 1 C-4.7934375 1.0309375 -4.7934375 1.0309375 -3.5625 1.0625 C-1.06645115 1.29633621 -1.06645115 1.29633621 0 0 Z " fill="#B5CA59" transform="translate(58,51)"/>
<path d="M0 0 C0.99 0.66 1.98 1.32 3 2 C3 2.66 3 3.32 3 4 C4.32 4.66 5.64 5.32 7 6 C4.3125 7.1875 4.3125 7.1875 1 8 C-1.875 6.625 -1.875 6.625 -4 5 C-3.67 4.34 -3.34 3.68 -3 3 C-2.34 3.33 -1.68 3.66 -1 4 C-1.66 3.01 -2.32 2.02 -3 1 C-2.01 0.67 -1.02 0.34 0 0 Z " fill="#E52D37" transform="translate(426,96)"/>
<path d="M0 0 C0.99 0.33 1.98 0.66 3 1 C5.06145107 1.068991 7.12501401 1.08467727 9.1875 1.0625 C10.27417969 1.05347656 11.36085938 1.04445313 12.48046875 1.03515625 C13.31191406 1.02355469 14.14335937 1.01195313 15 1 C14.34 2.32 13.68 3.64 13 5 C9.33333333 5 5.66666667 5 2 5 C1.34 3.35 0.68 1.7 0 0 Z " fill="#FADED9" transform="translate(272,88)"/>
<path d="M0 0 C0.33 0 0.66 0 1 0 C1.0289337 3.79165074 1.04677601 7.58327327 1.0625 11.375 C1.07087891 12.45523438 1.07925781 13.53546875 1.08789062 14.6484375 C1.09111328 15.6796875 1.09433594 16.7109375 1.09765625 17.7734375 C1.10289307 18.72653809 1.10812988 19.67963867 1.11352539 20.66162109 C1 23 1 23 0 25 C-2.5625 25.625 -2.5625 25.625 -5 26 C-4.35546875 25.04996094 -3.7109375 24.09992188 -3.046875 23.12109375 C-0.43069021 18.54277037 -0.33663631 14.24098861 -0.25 9.0625 C-0.22035156 8.18787109 -0.19070313 7.31324219 -0.16015625 6.41210938 C-0.09009434 4.27522123 -0.04270949 2.13760977 0 0 Z " fill="#FCB8B7" transform="translate(292,63)"/>
<path d="M0 0 C1.05163566 3.15490698 1.18382745 4.00803809 0 7 C-1.62890625 8.484375 -1.62890625 8.484375 -3.5625 9.75 C-4.20316406 10.17796875 -4.84382813 10.6059375 -5.50390625 11.046875 C-6.24447266 11.51867187 -6.24447266 11.51867187 -7 12 C-7.99 11.34 -8.98 10.68 -10 10 C-9.44570312 9.52949219 -8.89140625 9.05898438 -8.3203125 8.57421875 C-7.59585938 7.95160156 -6.87140625 7.32898437 -6.125 6.6875 C-5.40570313 6.07261719 -4.68640625 5.45773438 -3.9453125 4.82421875 C-1.80820669 2.9587676 -1.80820669 2.9587676 0 0 Z " fill="#B9CF74" transform="translate(87,43)"/>
<path d="M0 0 C3.3 0 6.6 0 10 0 C9.67 0.99 9.34 1.98 9 3 C6.69 3.33 4.38 3.66 2 4 C1.86722656 4.62648438 1.73445313 5.25296875 1.59765625 5.8984375 C1.33275391 7.12433594 1.33275391 7.12433594 1.0625 8.375 C0.88847656 9.18710938 0.71445313 9.99921875 0.53515625 10.8359375 C0 13 0 13 -1 15 C-1.66 14.67 -2.32 14.34 -3 14 C-2.5359375 13.0409375 -2.5359375 13.0409375 -2.0625 12.0625 C-0.66276271 8.02796312 -0.38081179 4.2523983 0 0 Z " fill="#ACCD56" transform="translate(91,92)"/>
<path d="M0 0 C2.29296875 -0.28125 2.29296875 -0.28125 5 0 C6.80078125 1.96875 6.80078125 1.96875 8.3125 4.5 C8.82425781 5.3353125 9.33601563 6.170625 9.86328125 7.03125 C10.23839844 7.6809375 10.61351562 8.330625 11 9 C10.01 9.495 10.01 9.495 9 10 C9 9.34 9 8.68 9 8 C8.34 8 7.68 8 7 8 C6.34 6.35 5.68 4.7 5 3 C4.34 3 3.68 3 3 3 C2.67 4.32 2.34 5.64 2 7 C0.4375 5.1875 0.4375 5.1875 -1 3 C-0.67 2.01 -0.34 1.02 0 0 Z " fill="#DA353C" transform="translate(427,54)"/>
<path d="M0 0 C0.66 0.33 1.32 0.66 2 1 C2 1.99 2 2.98 2 4 C1.05125 4.2475 0.1025 4.495 -0.875 4.75 C-4.08693191 5.6857077 -4.08693191 5.6857077 -5.375 8.125 C-5.58125 8.74375 -5.7875 9.3625 -6 10 C-6.66 10 -7.32 10 -8 10 C-6.07517084 3.33712984 -6.07517084 3.33712984 -3 1 C-2.01 0.67 -1.02 0.34 0 0 Z " fill="#D83238" transform="translate(406,64)"/>
<path d="M0 0 C2.31 0.33 4.62 0.66 7 1 C7 1.66 7 2.32 7 3 C8.98 2.67 10.96 2.34 13 2 C11.9375 3.5 11.9375 3.5 10 5 C6.5 5.5 6.5 5.5 3 5 C1.0625 2.5 1.0625 2.5 0 0 Z " fill="#E2252D" transform="translate(424,49)"/>
<path d="M0 0 C3.4375 2 3.4375 2 6 4 C5.01 4.33 4.02 4.66 3 5 C3 4.34 3 3.68 3 3 C-1.03793841 2.05594496 -4.48707665 1.33421436 -8.37890625 3.046875 C-10.32805777 4.28819511 -12.18495688 5.57071536 -14 7 C-11.10963703 0.66997431 -6.84409272 -0.84050261 0 0 Z " fill="#F1FBD3" transform="translate(57,25)"/>
<path d="M0 0 C2.97 0 5.94 0 9 0 C6.80766366 2.19233634 4.71977787 2.97854993 1.88671875 4.13671875 C-0.98114787 5.44893101 -3.42846791 7.18111145 -6 9 C-5.25 6.5625 -5.25 6.5625 -4 4 C-1.875 3.1875 -1.875 3.1875 0 3 C0 2.01 0 1.02 0 0 Z " fill="#D43238" transform="translate(262,50)"/>
<path d="M0 0 C0 0.99 0 1.98 0 3 C-4.95 3 -9.9 3 -15 3 C-15 2.34 -15 1.68 -15 1 C-13.25021843 0.83105557 -11.50016388 0.66493691 -9.75 0.5 C-8.77546875 0.4071875 -7.8009375 0.314375 -6.796875 0.21875 C-4.53697847 0.04199832 -2.26679807 0 0 0 Z " fill="#D3262D" transform="translate(353,104)"/>
<path d="M0 0 C-0.33 3.96 -0.66 7.92 -1 12 C-1.66 12 -2.32 12 -3 12 C-3.125 5.375 -3.125 5.375 -2 2 C-3.423125 2.309375 -3.423125 2.309375 -4.875 2.625 C-5.90625 2.74875 -6.9375 2.8725 -8 3 C-8.66 2.34 -9.32 1.68 -10 1 C-3.375 0 -3.375 0 0 0 Z " fill="#A9C755" transform="translate(43,91)"/>
<path d="M0 0 C1.65 0 3.3 0 5 0 C6 4.75 6 4.75 6 7 C5.01 7 4.02 7 3 7 C2.67 6.34 2.34 5.68 2 5 C1.34 5.66 0.68 6.32 0 7 C0 4.69 0 2.38 0 0 Z " fill="#F2A79F" transform="translate(477,38)"/>
<path d="M0 0 C0.66 0.99 1.32 1.98 2 3 C-0.97 5.97 -3.94 8.94 -7 12 C-7.99 11.34 -8.98 10.68 -10 10 C-9.52949219 9.61328125 -9.05898438 9.2265625 -8.57421875 8.828125 C-5.3182388 6.10469664 -2.34546467 3.58718126 0 0 Z " fill="#BACB7C" transform="translate(51,80)"/>
<path d="M0 0 C3.03721208 2.37282194 3.93308415 3.48379199 4.4375 7.375 C3.97563916 11.20184692 2.93532959 13.69381195 1 17 C-0.28820226 14.42359548 0.12567158 13.02473928 0.5 10.1875 C0.91646027 6.54479055 1.06916549 3.56388496 0 0 Z " fill="#ECF8CD" transform="translate(87,90)"/>
<path d="M0 0 C0.33 0.66 0.66 1.32 1 2 C-1 5 -1 5 -4 6 C-6.06145107 6.068991 -8.12501401 6.08467727 -10.1875 6.0625 C-11.81751953 6.04896484 -11.81751953 6.04896484 -13.48046875 6.03515625 C-14.31191406 6.02355469 -15.14335937 6.01195313 -16 6 C-16 5.67 -16 5.34 -16 5 C-15.34773437 4.89042969 -14.69546875 4.78085938 -14.0234375 4.66796875 C-8.8802377 3.73491038 -4.58100221 2.65215917 0 0 Z " fill="#FCD5D0" transform="translate(200,88)"/>
<path d="M0 0 C0.66 0.66 1.32 1.32 2 2 C-1 3 -1 3 -3.5625 2.875 C-4.366875 2.91625 -5.17125 2.9575 -6 3 C-6.99 4.485 -6.99 4.485 -8 6 C-8.66 6 -9.32 6 -10 6 C-10.33 6.99 -10.66 7.98 -11 9 C-10.51780822 3.57534247 -10.51780822 3.57534247 -8.3125 1.125 C-5.34551574 -0.31839775 -3.26045433 -0.35439721 0 0 Z " fill="#FB958E" transform="translate(483,34)"/>
<path d="M0 0 C0.66 0.33 1.32 0.66 2 1 C1.51917969 1.81726563 1.03835937 2.63453125 0.54296875 3.4765625 C-1.26555027 7.60639581 -1.54678676 10.92846174 -1.6875 15.375 C-1.72166016 16.11105469 -1.75582031 16.84710938 -1.79101562 17.60546875 C-1.87272789 19.40313853 -1.93805781 21.20154046 -2 23 C-2.33 23 -2.66 23 -3 23 C-3.33 17.06 -3.66 11.12 -4 5 C-3.34 5 -2.68 5 -2 5 C-1.34 3.35 -0.68 1.7 0 0 Z " fill="#A7C451" transform="translate(69,27)"/>
<path d="M0 0 C2.11391162 0.94761555 3.7381474 1.71320906 5.3125 3.4375 C7.83555166 5.77365894 10.84296934 6.70336241 14 8 C14.99 8.66 15.98 9.32 17 10 C10.74205876 9.66475315 5.71524733 8.36248568 1 4 C0.27734375 1.83203125 0.27734375 1.83203125 0 0 Z " fill="#C9343A" transform="translate(257,95)"/>
<path d="M0 0 C0.99 0.495 0.99 0.495 2 1 C2.96306898 3.88920694 3.1955936 5.92247881 3.25 8.9375 C3.27578125 9.79214844 3.3015625 10.64679688 3.328125 11.52734375 C2.93876562 14.46144478 1.93350171 15.80700201 0 18 C-0.07412683 14.88667334 -0.0127471 12.06798451 0.5625 9 C1.03836353 5.73693578 0.68725769 3.20720254 0 0 Z " fill="#CE353A" transform="translate(355,68)"/>
<path d="M0 0 C0.33 0 0.66 0 1 0 C1.46417129 9.81636321 1.46417129 9.81636321 -0.25 14.1875 C-0.8275 14.785625 -1.405 15.38375 -2 16 C-3.32 16 -4.64 16 -6 16 C-6 15.34 -6 14.68 -6 14 C-5.38125 13.505 -4.7625 13.01 -4.125 12.5 C-0.97593166 8.79521372 -0.68441603 4.7188684 0 0 Z " fill="#B3CA35" transform="translate(81,64)"/>
<path d="M0 0 C5.39449293 -0.27429625 8.51925805 -0.36055646 13 3 C12.67 3.99 12.34 4.98 12 6 C11.319375 5.525625 10.63875 5.05125 9.9375 4.5625 C6.58158044 2.7774364 3.75838519 2.36846914 0 2 C0 1.34 0 0.68 0 0 Z " fill="#B0CC62" transform="translate(50,23)"/>
<path d="M0 0 C5.625 -0.25 5.625 -0.25 9 2 C8.34 3.98 7.68 5.96 7 8 C6.401875 7.236875 5.80375 6.47375 5.1875 5.6875 C3.53040668 3.6516425 1.89702326 1.8021721 0 0 Z " fill="#E3323D" transform="translate(210,52)"/>
<path d="M0 0 C0.99830834 2.59560168 0.9890035 4.05498252 0.4375 6.8125 C-1.39405758 10.87377985 -3.96807292 13.77738568 -7 17 C-7.66 16.67 -8.32 16.34 -9 16 C-8.51789063 15.43152344 -8.03578125 14.86304687 -7.5390625 14.27734375 C-3.70936178 9.59573001 -1.14268641 5.96736236 0 0 Z " fill="#FBCAC8" transform="translate(512,109)"/>
<path d="M0 0 C0.33 0.99 0.66 1.98 1 3 C4.96 3 8.92 3 13 3 C10.50959058 5.49040942 9.56845643 5.32391014 6.125 5.375 C2.45820608 5.32201165 1.36889116 5.28105993 -1.625 3 C-2.07875 2.34 -2.5325 1.68 -3 1 C-2.01 0.67 -1.02 0.34 0 0 Z " fill="#CF3439" transform="translate(274,85)"/>
<path d="M0 0 C3 2 3 2 3.6875 4.8125 C4.29348354 10.50874528 4.07740053 16.28096075 4 22 C3.67 22 3.34 22 3 22 C2.86722656 20.91460937 2.73445312 19.82921875 2.59765625 18.7109375 C2.41933746 17.26561678 2.24094831 15.82030474 2.0625 14.375 C1.97548828 13.66214844 1.88847656 12.94929688 1.79882812 12.21484375 C1.29217395 8.12408039 0.7110957 4.06157365 0 0 Z " fill="#D12027" transform="translate(217,58)"/>
<path d="M0 0 C0.99 0.33 1.98 0.66 3 1 C1.07876747 3.00476438 -0.4301731 3.93016331 -3.19921875 4.26953125 C-5.52191423 4.310674 -7.70077487 4.34177671 -10 4 C-10.66 3.34 -11.32 2.68 -12 2 C-10.95199219 1.90912109 -10.95199219 1.90912109 -9.8828125 1.81640625 C-8.97273438 1.73261719 -8.06265625 1.64882812 -7.125 1.5625 C-6.22007813 1.48128906 -5.31515625 1.40007812 -4.3828125 1.31640625 C-1.98889139 1.13010715 -1.98889139 1.13010715 0 0 Z " fill="#E8F4BC" transform="translate(41,88)"/>
<path d="M0 0 C0.99 0.804375 1.98 1.60875 3 2.4375 C6.99119164 5.32682892 10.13291572 5.74383767 15 6 C12.49592582 7.63727927 11.09174448 8.00195201 8.0625 7.9375 C4.24070903 6.76756399 2.52824268 5.04876323 0 2 C0 1.34 0 0.68 0 0 Z " fill="#B4CD3D" transform="translate(54,76)"/>
<path d="M0 0 C4.62 0 9.24 0 14 0 C9.82050327 2.78633115 7.06624674 4 2 4 C1.34 2.68 0.68 1.36 0 0 Z " fill="#FDD0CB" transform="translate(436,60)"/>
<path d="M0 0 C4.62 0 9.24 0 14 0 C11 3 11 3 9.0625 3.3984375 C8.381875 3.39070313 7.70125 3.38296875 7 3.375 C5.9790625 3.38660156 5.9790625 3.38660156 4.9375 3.3984375 C3 3 3 3 0 0 Z " fill="#E7F5C8" transform="translate(46,107)"/>
<path d="M0 0 C2.475 0.99 2.475 0.99 5 2 C5 2.66 5 3.32 5 4 C5.598125 4.103125 6.19625 4.20625 6.8125 4.3125 C9.28243264 5.08876455 10.32251235 6.07088921 12 8 C7.98650355 7.71998862 6.27964858 7.24236211 3.1875 4.5625 C1 2 1 2 0 0 Z " fill="#FBD1CE" transform="translate(163,95)"/>
<path d="M0 0 C0.66 0 1.32 0 2 0 C2.30769231 8 2.30769231 8 0 11 C-2.125 11.75 -2.125 11.75 -4 12 C-4 11.34 -4 10.68 -4 10 C-3.34 9.67 -2.68 9.34 -2 9 C-1.31270746 6.88153715 -1.31270746 6.88153715 -0.875 4.4375 C-0.70742188 3.61121094 -0.53984375 2.78492187 -0.3671875 1.93359375 C-0.24601562 1.29550781 -0.12484375 0.65742187 0 0 Z " fill="#CB3C3F" transform="translate(464,77)"/>
<path d="M0 0 C-0.99 0 -1.98 0 -3 0 C-3.33 0.99 -3.66 1.98 -4 3 C-6.9375 4.75 -6.9375 4.75 -10 6 C-10.66 5.67 -11.32 5.34 -12 5 C-4.50757576 -1.35227273 -4.50757576 -1.35227273 0 0 Z " fill="#D63941" transform="translate(281,63)"/>
<path d="M0 0 C9.41002278 -0.3690205 9.41002278 -0.3690205 14 2 C13.34 3.32 12.68 4.64 12 6 C11.13375 5.360625 10.2675 4.72125 9.375 4.0625 C6.0401188 2.02451704 3.83952522 1.36566907 0 1 C0 0.67 0 0.34 0 0 Z " fill="#B2CD63" transform="translate(95,42)"/>
<path d="M0 0 C0.66 0 1.32 0 2 0 C2.6875 1.75 2.6875 1.75 3 4 C1.75 6.25 1.75 6.25 0 8 C-0.99 8 -1.98 8 -3 8 C-1.125 2.25 -1.125 2.25 0 0 Z " fill="#ACCC54" transform="translate(8,16)"/>
<path d="M0 0 C3 0 3 0 4.38671875 1.3125 C5.59114583 2.875 6.79557292 4.4375 8 6 C5.36 5.67 2.72 5.34 0 5 C0 3.35 0 1.7 0 0 Z " fill="#AACB50" transform="translate(41,104)"/>
<path d="M0 0 C0.33 0.66 0.66 1.32 1 2 C-0.11328125 3.984375 -0.11328125 3.984375 -2 6 C-4.91796875 6.390625 -4.91796875 6.390625 -8.1875 6.25 C-9.27417969 6.21390625 -10.36085938 6.1778125 -11.48046875 6.140625 C-12.31191406 6.09421875 -13.14335937 6.0478125 -14 6 C-14 5.67 -14 5.34 -14 5 C-13.11248047 4.96132812 -13.11248047 4.96132812 -12.20703125 4.921875 C-6.9279987 4.54295586 -3.89363339 3.89363339 0 0 Z " fill="#F6B3B1" transform="translate(355,86)"/>
<path d="M0 0 C2.31 0 4.62 0 7 0 C5.68 0.33 4.36 0.66 3 1 C3.66 2.32 4.32 3.64 5 5 C3.0625 5.5625 3.0625 5.5625 1 6 C0 5 0 5 -0.0625 2.4375 C-0.041875 1.633125 -0.02125 0.82875 0 0 Z " fill="#F01D24" transform="translate(180,84)"/>
<path d="M0 0 C0.33 0 0.66 0 1 0 C1.0825 1.19625 1.165 2.3925 1.25 3.625 C1.7767929 8.04377027 3.29865987 10.51439983 6 14 C5.01 14.495 5.01 14.495 4 15 C4 14.34 4 13.68 4 13 C2.68 12.34 1.36 11.68 0 11 C0 7.37 0 3.74 0 0 Z " fill="#B3CE6B" transform="translate(23,50)"/>
<path d="M0 0 C0.33 0 0.66 0 1 0 C1.33 1.98 1.66 3.96 2 6 C2.66 5.34 3.32 4.68 4 4 C4.66 5.65 5.32 7.3 6 9 C3.625 8.6875 3.625 8.6875 1 8 C-1 5 -1 5 -0.625 2.3125 C-0.41875 1.549375 -0.2125 0.78625 0 0 Z " fill="#BA2F2F" transform="translate(475,38)"/>
<path d="M0 0 C-0.33 1.32 -0.66 2.64 -1 4 C-1.33 3.67 -1.66 3.34 -2 3 C-4.69235776 2.76321284 -7.36498156 2.57801975 -10.0625 2.4375 C-10.82111328 2.39431641 -11.57972656 2.35113281 -12.36132812 2.30664062 C-14.24065438 2.20026367 -16.12030244 2.09960066 -18 2 C-18 1.67 -18 1.34 -18 1 C-15.56257869 0.83210874 -13.12507454 0.66563867 -10.6875 0.5 C-9.99720703 0.45230469 -9.30691406 0.40460938 -8.59570312 0.35546875 C-5.72337641 0.16120511 -2.87986212 0 0 0 Z " fill="#A6C342" transform="translate(51,66)"/>
<path d="M0 0 C1 3 1 3 -0.125 5.625 C-2 8 -2 8 -4.6875 8.8125 C-5.450625 8.874375 -6.21375 8.93625 -7 9 C-7.33 8.34 -7.66 7.68 -8 7 C-7.01 6.67 -6.02 6.34 -5 6 C-4.34 5.01 -3.68 4.02 -3 3 C-2.34 3 -1.68 3 -1 3 C-0.67 2.01 -0.34 1.02 0 0 Z " fill="#D53539" transform="translate(425,58)"/>
<path d="M0 0 C-0.33 0.99 -0.66 1.98 -1 3 C-1.66 3 -2.32 3 -3 3 C-3.061875 3.61875 -3.12375 4.2375 -3.1875 4.875 C-4 7 -4 7 -6.5625 8.25 C-7.366875 8.4975 -8.17125 8.745 -9 9 C-7.45665977 5.21180126 -4.44676575 0 0 0 Z " fill="#FDD8D3" transform="translate(329,54)"/>
<path d="M0 0 C0.66 0 1.32 0 2 0 C2 4.29 2 8.58 2 13 C0.35 13.66 -1.3 14.32 -3 15 C-3 14.34 -3 13.68 -3 13 C-2.34 13 -1.68 13 -1 13 C0.00496852 9.98509443 0.10335303 7.95818308 0.0625 4.8125 C0.05347656 3.91144531 0.04445313 3.01039062 0.03515625 2.08203125 C0.02355469 1.39496094 0.01195313 0.70789062 0 0 Z " fill="#B1CC5F" transform="translate(108,49)"/>
<path d="M0 0 C3.465 1.98 3.465 1.98 7 4 C5.02 6.97 5.02 6.97 3 10 C2.17361624 7.10765685 2 5.11257569 2 2 C1.34 2 0.68 2 0 2 C0 1.34 0 0.68 0 0 Z " fill="#FEDFDB" transform="translate(421,51)"/>
<path d="M0 0 C-1.12073862 0.83905565 -2.24674547 1.67107831 -3.375 2.5 C-4.00148438 2.9640625 -4.62796875 3.428125 -5.2734375 3.90625 C-7 5 -7 5 -9 5 C-9 4.34 -9 3.68 -9 3 C-8.34 3 -7.68 3 -7 3 C-7 2.01 -7 1.02 -7 0 C-3.98968256 -0.93423645 -3.13349732 -1.04449911 0 0 Z " fill="#FDD9D4" transform="translate(476,96)"/>
<path d="M0 0 C0.66 0 1.32 0 2 0 C2.125 6.75 2.125 6.75 1 9 C0.34 9 -0.32 9 -1 9 C-1.33 7.35 -1.66 5.7 -2 4 C-1.34 4 -0.68 4 0 4 C0 2.68 0 1.36 0 0 Z " fill="#D93D43" transform="translate(201,77)"/>
<path d="M0 0 C0.66 0 1.32 0 2 0 C2 0.66 2 1.32 2 2 C2.928125 2.37125 2.928125 2.37125 3.875 2.75 C6.35068687 4.20628639 6.95125002 5.37812506 8 8 C4.82461668 7.65978036 3.97723135 6.97533396 1.75 4.5625 C0 2 0 2 0 0 Z " fill="#D63A3F" transform="translate(166,54)"/>
<path d="M0 0 C4.03520597 1.58962659 8.01811282 3.28232318 12 5 C8.84979535 6.38609004 7.68081978 5.89180331 4.3125 4.75 C1 3 1 3 0 0 Z " fill="#CF333B" transform="translate(326,99)"/>
<path d="M0 0 C2.4375 0.375 2.4375 0.375 5 1 C5.33 1.66 5.66 2.32 6 3 C8.01669827 4.13350534 8.01669827 4.13350534 10 5 C10 5.66 10 6.32 10 7 C5.56541027 5.6062718 3.12621626 3.39417765 0 0 Z " fill="#FDD8D1" transform="translate(323,95)"/>
<path d="M0 0 C0.33 1.32 0.66 2.64 1 4 C0.34 4 -0.32 4 -1 4 C-1 6.64 -1 9.28 -1 12 C-0.34 12 0.32 12 1 12 C0.67 12.99 0.34 13.98 0 15 C0 14.34 0 13.68 0 13 C-0.66 13 -1.32 13 -2 13 C-2.05391993 11.20866022 -2.09275571 9.41686101 -2.125 7.625 C-2.14820313 6.62726563 -2.17140625 5.62953125 -2.1953125 4.6015625 C-2 2 -2 2 0 0 Z " fill="#E9F7C3" transform="translate(44,91)"/>
<path d="M0 0 C1.65 0 3.3 0 5 0 C2.51047079 2.66735273 0.36591866 4.55746343 -3 6 C-3 4.35 -3 2.7 -3 1 C-2.01 1.33 -1.02 1.66 0 2 C0 1.34 0 0.68 0 0 Z " fill="#DA323D" transform="translate(392,57)"/>
<path d="M0 0 C0.33 0 0.66 0 1 0 C1.75 3.1875 1.75 3.1875 2 7 C0.0625 9.9375 0.0625 9.9375 -2 12 C-2.99 11.67 -3.98 11.34 -5 11 C-4.01 10.67 -3.02 10.34 -2 10 C-1.34 6.7 -0.68 3.4 0 0 Z " fill="#FCD1CD" transform="translate(466,78)"/>
<path d="M0 0 C0.66 0.33 1.32 0.66 2 1 C1.34 2.65 0.68 4.3 0 6 C-3.16115776 4.63016497 -3.9927092 4.0109362 -6 1 C-3.03 1.495 -3.03 1.495 0 2 C0 1.34 0 0.68 0 0 Z " fill="#E03A43" transform="translate(339,84)"/>
<path d="M0 0 C2.64 0 5.28 0 8 0 C8 0.33 8 0.66 8 1 C6.35 1 4.7 1 3 1 C3 1.99 3 2.98 3 4 C1.02 4.33 -0.96 4.66 -3 5 C-2.01 4.34 -1.02 3.68 0 3 C0 2.01 0 1.02 0 0 Z " fill="#DD1D25" transform="translate(408,64)"/>
<path d="M0 0 C0.66 0.33 1.32 0.66 2 1 C1.2575 1.5775 0.515 2.155 -0.25 2.75 C-2.66087643 4.72253526 -4.84042701 6.76044282 -7 9 C-7.66 8.67 -8.32 8.34 -9 8 C-6.03 5.36 -3.06 2.72 0 0 Z " fill="#FABCBD" transform="translate(263,53)"/>
<path d="M0 0 C1.67542976 0.28604898 3.34385343 0.61781233 5 1 C1.47320901 3.35119399 -0.02879485 3.21443452 -4.1875 3.125 C-5.27417969 3.10695312 -6.36085938 3.08890625 -7.48046875 3.0703125 C-8.72763672 3.03550781 -8.72763672 3.03550781 -10 3 C-10 2.67 -10 2.34 -10 2 C-9.04287109 1.90912109 -9.04287109 1.90912109 -8.06640625 1.81640625 C-6.82697266 1.69072266 -6.82697266 1.69072266 -5.5625 1.5625 C-4.73878906 1.48128906 -3.91507812 1.40007812 -3.06640625 1.31640625 C-1.01337975 1.21069185 -1.01337975 1.21069185 0 0 Z " fill="#D02D33" transform="translate(488,129)"/>
<path d="M0 0 C0 0.66 0 1.32 0 2 C-3.13498292 3.85776765 -5.37471432 4.20140476 -9 4 C-9.33 3.34 -9.66 2.68 -10 2 C-8.7090864 1.66376204 -7.41723903 1.33110751 -6.125 1 C-5.40570313 0.814375 -4.68640625 0.62875 -3.9453125 0.4375 C-2 0 -2 0 0 0 Z " fill="#D03237" transform="translate(466,102)"/>
<path d="M0 0 C-2.00993705 2.00993705 -3.59211232 2.89940919 -6.125 4.125 C-6.84945313 4.47820313 -7.57390625 4.83140625 -8.3203125 5.1953125 C-8.87460937 5.46085937 -9.42890625 5.72640625 -10 6 C-10 5.01 -10 4.02 -10 3 C-6.62637846 0.39749195 -4.23092172 -0.36265043 0 0 Z " fill="#CE3D3F" transform="translate(335,50)"/>
<path d="M0 0 C0.66 0 1.32 0 2 0 C2.19491452 1.45736087 2.38069358 2.91594593 2.5625 4.375 C2.66691406 5.18710937 2.77132813 5.99921875 2.87890625 6.8359375 C3 9 3 9 2 11 C1.34 11 0.68 11 0 11 C0.020625 9.906875 0.04125 8.81375 0.0625 7.6875 C0.18544452 4.05615809 0.18544452 4.05615809 -1 1 C-0.67 0.67 -0.34 0.34 0 0 Z " fill="#DA3134" transform="translate(486,35)"/>
<path d="M0 0 C4.875 4.75 4.875 4.75 6 7 C4.68 7 3.36 7 2 7 C1.34 6.01 0.68 5.02 0 4 C-0.66 3.67 -1.32 3.34 -2 3 C-1 1 -1 1 0 0 Z " fill="#D72E38" transform="translate(320,92)"/>
<path d="M0 0 C1.65 0 3.3 0 5 0 C0.375 4.875 0.375 4.875 -3 6 C-2.67 4.68 -2.34 3.36 -2 2 C-1.34 2 -0.68 2 0 2 C0 1.34 0 0.68 0 0 Z " fill="#F6202B" transform="translate(446,83)"/>
<path d="M0 0 C0.7425 0.0825 1.485 0.165 2.25 0.25 C1.92 1.24 1.59 2.23 1.25 3.25 C-1.39 3.58 -4.03 3.91 -6.75 4.25 C-3.42692308 0.31153846 -3.42692308 0.31153846 0 0 Z " fill="#F3242E" transform="translate(459.75,62.75)"/>
<path d="M0 0 C4 2 4 2 5.3125 3.875 C6 6 6 6 5 10 C3.35 6.7 1.7 3.4 0 0 Z " fill="#CB343A" transform="translate(367,58)"/>
<path d="M0 0 C1.98 0 3.96 0 6 0 C4.37660195 1.70884005 2.70680947 3.37446717 1 5 C0.34 5 -0.32 5 -1 5 C-0.67 3.35 -0.34 1.7 0 0 Z " fill="#D43134" transform="translate(498,124)"/>
<path d="M0 0 C2.75 0.25 2.75 0.25 5 1 C2.64031256 3.09749995 1.45383006 3.96905704 -1.75 4.1875 C-2.86375 4.0946875 -2.86375 4.0946875 -4 4 C-2.3125 1.9375 -2.3125 1.9375 0 0 Z " fill="#EBF7CA" transform="translate(75,81)"/>
<path d="M0 0 C-0.99 0.33 -1.98 0.66 -3 1 C-3 1.66 -3 2.32 -3 3 C-5.31 3.33 -7.62 3.66 -10 4 C-7.39928297 0.98864344 -3.94054294 -1.97027147 0 0 Z " fill="#BCD276" transform="translate(28,4)"/>
<path d="M0 0 C-2.3125 1.5625 -2.3125 1.5625 -5 3 C-5.99 2.67 -6.98 2.34 -8 2 C-8 1.34 -8 0.68 -8 0 C-4.94736336 -0.98120464 -3.05263664 -0.98120464 0 0 Z " fill="#FCD1D0" transform="translate(296,101)"/>
<path d="M0 0 C-0.33 2.31 -0.66 4.62 -1 7 C-1.66 6.34 -2.32 5.68 -3 5 C-3 4.01 -3 3.02 -3 2 C-3.66 1.67 -4.32 1.34 -5 1 C-1.125 0 -1.125 0 0 0 Z " fill="#E02B33" transform="translate(464,78)"/>
<path d="M0 0 C0.33 0 0.66 0 1 0 C2.17076699 3.98060777 3.25749403 7.91621717 4 12 C2 10.5 2 10.5 0 8 C-0.35800135 5.24128373 -0.18660165 2.79902476 0 0 Z " fill="#F0FBCF" transform="translate(24,50)"/>
<path d="M0 0 C0.66 0.33 1.32 0.66 2 1 C1.67 3.31 1.34 5.62 1 8 C-0.37562854 6.71034824 -1.70766393 5.37310707 -3 4 C-3 3.34 -3 2.68 -3 2 C-2.01 1.34 -1.02 0.68 0 0 Z " fill="#FDD2CF" transform="translate(435,52)"/>
<path d="M0 0 C5.75 1.625 5.75 1.625 8 5 C6.68 5 5.36 5 4 5 C4 4.34 4 3.68 4 3 C2.68 2.67 1.36 2.34 0 2 C0 1.34 0 0.68 0 0 Z " fill="#FEDDD9" transform="translate(355,51)"/>
<path d="M0 0 C1.62418745 -0.08090971 3.24951745 -0.13914995 4.875 -0.1875 C5.77992187 -0.22230469 6.68484375 -0.25710937 7.6171875 -0.29296875 C8.79667969 -0.14794922 8.79667969 -0.14794922 10 0 C10.66 0.99 11.32 1.98 12 3 C6.06 2.01 6.06 2.01 0 1 C0 0.67 0 0.34 0 0 Z " fill="#F3FCD2" transform="translate(31,43)"/>
</svg>
