<?xml version="1.0" encoding="UTF-8"?>
<svg version="1.1" xmlns="http://www.w3.org/2000/svg" width="500" height="500">
<path d="M0 0 C18 0 18 0 21.98828125 3.47265625 C23.24804688 5.70117188 23.24804688 5.70117188 24.3125 8.0625 C25.11987493 9.57487005 25.92845761 11.08659599 26.73828125 12.59765625 C27.10671143 13.33902832 27.4751416 14.08040039 27.85473633 14.84423828 C29.60149805 18.13221654 31.7976285 21.00110414 34 24 C34.76151578 25.31512567 35.49661705 26.6464334 36.1875 28 C38.77054454 32.77056039 41.75944322 37.2438349 44.8190918 41.71679688 C49.77678822 49.01582505 54.30858214 56.49373143 59 64 C59.33 42.88 59.66 21.76 60 0 C65.61 0 71.22 0 77 0 C77 31.02 77 62.04 77 94 C73.41848148 95.19383951 70.52852129 95.26505387 66.75 95.25 C65.46609375 95.27578125 64.1821875 95.3015625 62.859375 95.328125 C59.96772459 94.80612201 59.10829304 94.12938415 57.19238281 91.84033203 C55.34937492 88.94761986 53.66744218 85.99700541 52 83 C50.89282259 81.22903021 49.77330723 79.46570438 48.640625 77.7109375 C48.08777832 76.84073975 47.53493164 75.97054199 46.96533203 75.07397461 C41.65148563 66.71294815 36.32643463 58.36055654 30.90332031 50.06982422 C28.14457073 45.83357133 25.47640212 41.54465683 22.83154297 37.23657227 C22.46214096 36.63554939 22.09273895 36.03452652 21.71214294 35.41529083 C20.80775798 33.94373448 19.90383237 32.47189583 19 31 C18.9845388 32.18057228 18.9845388 32.18057228 18.96876526 33.38499451 C18.87095812 40.78698107 18.76846814 48.18888068 18.66066074 55.59072781 C18.60539706 59.39647405 18.55197171 63.20222792 18.50268555 67.00805664 C18.45509259 70.67799335 18.40275191 74.34783391 18.34705925 78.01765633 C18.32661263 79.42072227 18.30790343 80.8238146 18.29092598 82.2269268 C18.26693313 84.18576926 18.23629801 86.14452701 18.20532227 88.10327148 C18.18977798 89.22023911 18.1742337 90.33720673 18.15821838 91.48802185 C18 94 18 94 17 95 C14.7101179 95.09956009 12.41704063 95.1296872 10.125 95.125 C8.86945313 95.12757813 7.61390625 95.13015625 6.3203125 95.1328125 C3 95 3 95 0 94 C0 62.98 0 31.96 0 0 Z " fill="#14C5FA" transform="translate(65,203)"/>
<path d="M0 0 C0 0.66 0 1.32 0 2 C0.5775 2.2475 1.155 2.495 1.75 2.75 C7.91831717 6.17684287 10.46482574 11.66206435 13 18 C13 24.27 13 30.54 13 37 C-2.18 37 -17.36 37 -33 37 C-31.1428089 44.71211684 -31.1428089 44.71211684 -28 46 C-28 46.66 -28 47.32 -28 48 C-20.78868538 50.35471498 -14.88974883 50.83179749 -7.734375 47.93359375 C-5.45861278 46.7085776 -4.24063892 45.24865805 -3 43 C2.86809507 43.52393706 7.54873741 44.76108858 13 47 C12.09376275 48.61008152 11.17454201 50.21285925 10.25 51.8125 C9.73953125 52.70582031 9.2290625 53.59914063 8.703125 54.51953125 C6.98756948 57.01810408 5.59667749 58.46141747 3 60 C2.01 60 1.02 60 0 60 C0 60.66 0 61.32 0 62 C-10.82003148 66.15551934 -21.29495362 67.44119086 -32.33203125 63.078125 C-35.77975077 61.4150321 -39.16495511 59.59879115 -42 57 C-42 56.34 -42 55.68 -42 55 C-42.66 55 -43.32 55 -44 55 C-44.98163422 53.06374902 -45.96022454 51.12595461 -46.9375 49.1875 C-47.48277344 48.10855469 -48.02804687 47.02960938 -48.58984375 45.91796875 C-52.58719747 37.64643626 -52.11666049 26.75400214 -50.38671875 17.83984375 C-47.39164889 9.51434118 -41.53046623 2.99590542 -33.6875 -1 C-22.51571688 -6.05097887 -11.00553017 -5.1252365 0 0 Z M-28 13 C-28 13.66 -28 14.32 -28 15 C-28.66 15 -29.32 15 -30 15 C-32.43160605 18.36683915 -33 19.73350364 -33 24 C-23.43 24 -13.86 24 -4 24 C-3.53774984 19.09245003 -3.53774984 19.09245003 -6 16 C-6.66 16 -7.32 16 -8 16 C-8 15.34 -8 14.68 -8 14 C-15.51494336 9.72754489 -20.09470581 8.48268903 -28 13 Z " fill="#5A66EE" transform="translate(420,233)"/>
<path d="M0 0 C0 0.66 0 1.32 0 2 C0.99 2.33 1.98 2.66 3 3 C8.40759563 9.45808683 8.67947832 16.17091497 8.48828125 24.25390625 C8.48120651 25.39536606 8.47413177 26.53682587 8.46684265 27.71287537 C8.43903246 31.33010612 8.3763152 34.9457434 8.3125 38.5625 C8.28740002 41.02667023 8.26458985 43.49086491 8.24414062 45.95507812 C8.18924899 51.97065859 8.10306614 57.98505988 8 64 C3.05 64 -1.9 64 -7 64 C-7.66 62.35 -8.32 60.7 -9 59 C-10.051875 59.928125 -10.051875 59.928125 -11.125 60.875 C-17.80560291 65.81283693 -25.01192815 65.58496084 -33 65 C-39.39979858 64.02800052 -43.64520511 61.46125018 -47.68359375 56.3828125 C-50.6002526 51.10340033 -50.51243094 45.46898544 -49.3125 39.6875 C-45.77041544 32.43466019 -41.75650837 28.08569144 -34.11328125 25.31640625 C-25.98554821 23.25652892 -17.32390785 22.84406401 -9 22 C-8.6652672 17.46953447 -8.6652672 17.46953447 -10.875 13.6875 C-14.20533206 11.04282454 -16.55521964 10.65648501 -20.8359375 10.71875 C-24.65877839 11.21558131 -26.87536698 12.73310938 -30 15 C-31.93694583 17.58203721 -31.93694583 17.58203721 -33 20 C-38.27749285 19.46148032 -42.25645564 18.22656164 -47 16 C-46.49357808 11.64477147 -45.61588503 8.55760365 -43 5 C-42.34 5 -41.68 5 -41 5 C-41 4.34 -41 3.68 -41 3 C-39.68 2.67 -38.36 2.34 -37 2 C-37 1.34 -37 0.68 -37 0 C-25.03702195 -5.67734551 -11.82875068 -6.36932729 0 0 Z M-31.1875 40.3125 C-33.24462448 42.82245645 -33.24462448 42.82245645 -33 45.625 C-31.63020616 48.87826036 -30.13761623 50.43119189 -27 52 C-21.10555605 52.58944439 -16.72499182 51.50530847 -12 48 C-8.843633 44.26894434 -7.80024872 40.85229146 -8 36 C-16.11363037 35.68926522 -24.39743517 35.38637453 -31.1875 40.3125 Z " fill="#25B1F7" transform="translate(203,233)"/>
<path d="M0 0 C5.61 0 11.22 0 17 0 C19.39196542 5.77370962 21.53820665 11.45296462 23.19140625 17.48046875 C24.02526827 20.07873445 25.09205588 22.52455075 26.1862793 25.02172852 C27.71206549 28.73113311 28.89446106 32.55971091 30.125 36.375 C30.64568992 37.98786877 31.16898653 39.59989913 31.6953125 41.2109375 C31.92234863 41.91524902 32.14938477 42.61956055 32.38330078 43.34521484 C32.87418952 45.01274222 32.87418952 45.01274222 34 46 C39.50269807 30.71980757 44.94364774 15.43518057 50 0 C55.94 0 61.88 0 68 0 C67.30585927 2.0824222 66.61113416 4.16465081 65.9140625 6.24609375 C65.29533669 8.11020357 64.6862257 9.97752761 64.0859375 11.84765625 C62.12330584 17.90309296 59.90623162 23.76135454 57.4140625 29.6171875 C52.26448953 41.93633167 47.66251138 54.49082314 43 67 C36.73 67 30.46 67 24 67 C23.443125 65.2675 22.88625 63.535 22.3125 61.75 C20.54237037 56.42714542 18.48937597 51.29718786 16.2890625 46.140625 C14.42039394 41.58786888 12.81557995 36.95034889 11.18359375 32.30859375 C9.57811421 27.8206691 7.78949799 23.41677593 6 19 C5.09643917 16.75309208 4.20094296 14.50292842 3.3125 12.25 C2.89613281 11.20328125 2.47976563 10.1565625 2.05078125 9.078125 C1 6 1 6 0 0 Z " fill="#4B7CF1" transform="translate(298,230)"/>
<path d="M0 0 C5.94 0 11.88 0 18 0 C24.8266912 7.65696445 24.8266912 7.65696445 25.1484375 13.86328125 C25.09945312 14.56839844 25.05046875 15.27351562 25 16 C25.66 16 26.32 16 27 16 C27 17.65 27 19.3 27 21 C27.99 21 28.98 21 30 21 C36 31.4 36 31.4 36 35 C36.99 35 37.98 35 39 35 C40.44977894 37.34112451 41.04314411 38.5796929 40.7578125 41.359375 C40.54898438 42.14828125 40.34015625 42.9371875 40.125 43.75 C39.92132813 44.54921875 39.71765625 45.3484375 39.5078125 46.171875 C39.34023437 46.77515625 39.17265625 47.3784375 39 48 C38.67 47.34 38.34 46.68 38 46 C36.02 46.66 34.04 47.32 32 48 C31.67 47.01 31.34 46.02 31 45 C30.34 45 29.68 45 29 45 C26 39.375 26 39.375 26 36 C25.34 36 24.68 36 24 36 C23.34 33.03 22.68 30.06 22 27 C21.67 27.66 21.34 28.32 21 29 C19.68 28.67 18.36 28.34 17 28 C16.67 49.45 16.34 70.9 16 93 C12.7 93 9.4 93 6 93 C5.505 93.99 5.505 93.99 5 95 C3.35 94.67 1.7 94.34 0 94 C0 62.98 0 31.96 0 0 Z " fill="#03D7FD" transform="translate(65,203)"/>
<path d="M0 0 C5.61 0 11.22 0 17 0 C17 6.27 17 12.54 17 19 C21.95 19 26.9 19 32 19 C32 23.62 32 28.24 32 33 C26.56804129 33.74072164 22.41677497 33.96797964 17 33 C17.06882757 37.93010753 17.15676828 42.85936287 17.26245117 47.78881836 C17.29570863 49.46580559 17.32373808 51.14290497 17.34643555 52.82006836 C17.37996737 55.23079225 17.43227978 57.64048762 17.48828125 60.05078125 C17.49467117 60.80087967 17.5010611 61.55097809 17.50764465 62.32380676 C17.61035347 66.38900037 17.61035347 66.38900037 19.36328125 69.96484375 C21.76167295 71.48172633 23.87764625 71.52221449 26.6875 71.6875 C28.440625 71.790625 30.19375 71.89375 32 72 C32 76.62 32 81.24 32 86 C24.55650851 87.86087287 16.96661494 87.58951818 10.08203125 84 C5.50872765 81.03564116 3.22435594 77.96202479 1 73 C0.0822758 68.01779988 -0.13567559 63.14873897 -0.09765625 58.09765625 C-0.0962413 57.3750914 -0.09482635 56.65252655 -0.09336853 55.9080658 C-0.08782225 53.62616635 -0.0752802 51.34436921 -0.0625 49.0625 C-0.05747804 47.50455872 -0.05291636 45.94661588 -0.04882812 44.38867188 C-0.0378705 40.59240919 -0.02064372 36.79622187 0 33 C-2.97 33 -5.94 33 -9 33 C-9 28.38 -9 23.76 -9 19 C-6.03 19 -3.06 19 0 19 C0 12.73 0 6.46 0 0 Z " fill="#309CF6" transform="translate(228,211)"/>
<path d="M0 0 C5.28 0 10.56 0 16 0 C16 22.11 16 44.22 16 67 C10.72 67 5.44 67 0 67 C0 44.89 0 22.78 0 0 Z " fill="#388FF4" transform="translate(272,230)"/>
<path d="M0 0 C5.86809507 0.52393706 10.54873741 1.76108858 16 4 C15.09376275 5.61008152 14.17454201 7.21285925 13.25 8.8125 C12.48429687 10.15248047 12.48429687 10.15248047 11.703125 11.51953125 C9.98756948 14.01810408 8.59667749 15.46141747 6 17 C5.01 17 4.02 17 3 17 C3 17.66 3 18.32 3 19 C-7.82003148 23.15551934 -18.29495362 24.44119086 -29.33203125 20.078125 C-32.77975077 18.4150321 -36.16495511 16.59879115 -39 14 C-39 13.34 -39 12.68 -39 12 C-39.66 12 -40.32 12 -41 12 C-41 11.34 -41 10.68 -41 10 C-39 11 -37 12 -35 13 C-34.67 12.01 -34.34 11.02 -34 10 C-32.5393715 12.64738916 -32 13.89448334 -32 17 C-30.68 16.67 -29.36 16.34 -28 16 C-27.67 14.68 -27.34 13.36 -27 12 C-26.34 12 -25.68 12 -25 12 C-24.67 11.01 -24.34 10.02 -24 9 C-25.32 8.01 -26.64 7.02 -28 6 C-27.67 4.68 -27.34 3.36 -27 2 C-26.34 2.33 -25.68 2.66 -25 3 C-25 3.66 -25 4.32 -25 5 C-17.78868538 7.35471498 -11.88974883 7.83179749 -4.734375 4.93359375 C-2.45861278 3.7085776 -1.24063892 2.24865805 0 0 Z " fill="#5D62ED" transform="translate(417,276)"/>
<path d="M0 0 C3 2.4375 3 2.4375 5 5 C5.33 5.33 5.66 5.66 6 6 C6.29322866 8.93228663 6.50004247 11.14491883 6 14 C3.5625 16.9375 3.5625 16.9375 1 19 C0.67 19.33 0.34 19.66 0 20 C-4.72647844 20.68358159 -8.00574858 20.68354785 -12 17.9375 C-14.38348169 14.43676127 -14.92463735 12.22030829 -15 8 C-14.26743287 5.0697315 -13.39829667 3.46202414 -11.4375 1.1875 C-7.66921471 -0.6483313 -4.10113029 -0.81145359 0 0 Z " fill="#388FF4" transform="translate(284,201)"/>
<path d="M0 0 C0.33 0 0.66 0 1 0 C1.33 3.3 1.66 6.6 2 10 C2.66 10 3.32 10 4 10 C7 15.625 7 15.625 7 19 C7.66 19 8.32 19 9 19 C9.33 19.66 9.66 20.32 10 21 C11.98 20.67 13.96 20.34 16 20 C17.71084699 25.51272919 18.4606443 28.53190155 16 34 C12.14765345 29.47001177 9.07755838 24.53179908 5.9375 19.5 C5.40833984 18.65824219 4.87917969 17.81648438 4.33398438 16.94921875 C1.84880862 12.98915199 -0.59762091 9.01090512 -3 5 C-3.0154612 6.18057228 -3.0154612 6.18057228 -3.03123474 7.38499451 C-3.12904188 14.78698107 -3.23153186 22.18888068 -3.33933926 29.59072781 C-3.39460294 33.39647405 -3.44802829 37.20222792 -3.49731445 41.00805664 C-3.54490741 44.67799335 -3.59724809 48.34783391 -3.65294075 52.01765633 C-3.67338737 53.42072227 -3.69209657 54.8238146 -3.70907402 56.2269268 C-3.73306687 58.18576926 -3.76370199 60.14452701 -3.79467773 62.10327148 C-3.81022202 63.22023911 -3.8257663 64.33720673 -3.84178162 65.48802185 C-4 68 -4 68 -5 69 C-6.85772162 68.91015699 -8.71247985 68.75388139 -10.5625 68.5625 C-11.57441406 68.46066406 -12.58632812 68.35882813 -13.62890625 68.25390625 C-14.80259766 68.12822266 -14.80259766 68.12822266 -16 68 C-16 67.67 -16 67.34 -16 67 C-12.7 67 -9.4 67 -6 67 C-6 45.22 -6 23.44 -6 1 C-3.525 1.99 -3.525 1.99 -1 3 C-0.67 2.01 -0.34 1.02 0 0 Z " fill="#39D2EE" transform="translate(87,229)"/>
<path d="M0 0 C5.94 0 11.88 0 18 0 C21.50129134 4.16369781 23.22251765 6.23943859 25 11 C24.34 11.66 23.68 12.32 23 13 C22.67 11.68 22.34 10.36 22 9 C21.34 9 20.68 9 20 9 C19.71125 8.195625 19.4225 7.39125 19.125 6.5625 C18.26737432 3.8673532 18.26737432 3.8673532 16 3 C9.07 2.505 9.07 2.505 2 2 C2 32.03 2 62.06 2 93 C2.66 93 3.32 93 4 93 C3.505 93.99 3.505 93.99 3 95 C2.01 94.67 1.02 94.34 0 94 C0 62.98 0 31.96 0 0 Z " fill="#68E2F2" transform="translate(65,203)"/>
<path d="M0 0 C4.29 0 8.58 0 13 0 C15.45029331 5.71735105 16.33266291 9.79029227 16 16 C15.67 15.34 15.34 14.68 15 14 C14.34 14 13.68 14 13 14 C12.67 13.01 12.34 12.02 12 11 C12.020625 11.94875 12.04125 12.8975 12.0625 13.875 C12 17 12 17 11 19 C10.34 19 9.68 19 9 19 C8.67 19.66 8.34 20.32 8 21 C6 18 6 18 6 15 C5.00419282 13.99582469 4.00365627 12.99633031 3 12 C2.05078125 9.84375 2.05078125 9.84375 1.3125 7.5 C1.06113281 6.7265625 0.80976563 5.953125 0.55078125 5.15625 C0 3 0 3 0 0 Z " fill="#4183F4" transform="translate(301,231)"/>
<path d="M0 0 C5.61 0 11.22 0 17 0 C17 31.02 17 62.04 17 94 C13.30691024 95.23102992 10.11949288 94.87175152 6.3125 94.5625 C5.61060547 94.51029297 4.90871094 94.45808594 4.18554688 94.40429688 C2.45661946 94.27492135 0.72824645 94.13817469 -1 94 C-1.33 93.01 -1.66 92.02 -2 91 C-1.01 91.33 -0.02 91.66 1 92 C5.95 92 10.9 92 16 92 C16 61.97 16 31.94 16 1 C11.05 1 6.1 1 1 1 C1 22.12 1 43.24 1 65 C0.67 65 0.34 65 0 65 C0 43.55 0 22.1 0 0 Z " fill="#49BADF" transform="translate(125,203)"/>
<path d="M0 0 C5.28 0 10.56 0 16 0 C16 22.11 16 44.22 16 67 C10.72 67 5.44 67 0 67 C0 44.89 0 22.78 0 0 Z M1 1 C1 22.12 1 43.24 1 65 C5.29 65 9.58 65 14 65 C15.28510776 63.93905414 15.28510776 63.93905414 15.12025452 61.48802185 C15.11803391 60.37105423 15.11581329 59.25408661 15.11352539 58.10327148 C15.11344986 56.84203964 15.11337433 55.5808078 15.11329651 54.28135681 C15.1081891 52.89460206 15.10297309 51.50784771 15.09765625 50.12109375 C15.09579201 48.71004791 15.09436814 47.29900143 15.09336853 45.88795471 C15.08954379 42.16759465 15.0797139 38.4472734 15.06866455 34.72692871 C15.05844948 30.93319219 15.05387071 27.13944942 15.04882812 23.34570312 C15.03809158 15.89711564 15.02049515 8.4485682 15 1 C10.38 1 5.76 1 1 1 Z " fill="#5497E1" transform="translate(272,230)"/>
<path d="M0 0 C4.62 0 9.24 0 14 0 C14 1.65 14 3.3 14 5 C13.34 5 12.68 5 12 5 C12.061875 6.0828125 12.061875 6.0828125 12.125 7.1875 C11.99078695 10.20729369 11.24829381 12.26935729 10 15 C9.01 15 8.02 15 7 15 C6 13.33333333 5 11.66666667 4 10 C3.01 10 2.02 10 1 10 C1.33 9.34 1.66 8.68 2 8 C1.01 7.67 0.02 7.34 -1 7 C-0.67 4.69 -0.34 2.38 0 0 Z " fill="#4D72F2" transform="translate(349,231)"/>
<path d="M0 0 C5.61 0 11.22 0 17 0 C20.22265625 7.6171875 20.22265625 7.6171875 21 10 C20.67 10.66 20.34 11.32 20 12 C19.67 11.01 19.34 10.02 19 9 C18.34 8.67 17.68 8.34 17 8 C16.59270772 5.67843403 16.25561323 3.3431213 16 1 C11.71 1 7.42 1 3 1 C3.474375 2.5675 3.94875 4.135 4.4375 5.75 C5.9608209 10.78358209 5.9608209 10.78358209 6.41015625 13.265625 C6.60480469 13.83796875 6.79945313 14.4103125 7 15 C7.99 15.33 8.98 15.66 10 16 C11.10228696 20.40914783 11.07654536 24.48382401 11 29 C9 28 9 28 8.10546875 25.4453125 C7.65107422 23.80175781 7.65107422 23.80175781 7.1875 22.125 C5.56780973 16.56915677 3.53541974 11.51221123 0.953125 6.33984375 C0 4 0 4 0 0 Z " fill="#719EEA" transform="translate(298,230)"/>
<path d="M0 0 C5.61 0 11.22 0 17 0 C17 6.27 17 12.54 17 19 C16.34 19 15.68 19 15 19 C15 13.39 15 7.78 15 2 C10.71 2 6.42 2 2 2 C2 7.61 2 13.22 2 19 C1.34 19 0.68 19 0 19 C0 12.73 0 6.46 0 0 Z " fill="#6CB1E8" transform="translate(228,211)"/>
<path d="M0 0 C0.50493003 2.01972011 1.00950643 4.03921402 1.5 6.0625 C1.92981688 7.7280404 2.45605447 9.36816342 3 11 C2.34 11.66 1.68 12.32 1 13 C0.67 12.34 0.34 11.68 0 11 C-0.33 11.99 -0.66 12.98 -1 14 C-1.99 14.495 -1.99 14.495 -3 15 C-3.495 15.825 -3.99 16.65 -4.5 17.5 C-6 20 -6 20 -8 21 C-9.99960012 21.039992 -12.00047242 21.04346799 -14 21 C-11 19 -11 19 -8.5 17.75 C-3.87463527 14.51224469 -3.07356866 10.36784329 -2 5 C-8.6 5.66 -15.2 6.32 -22 7 C-21.67 6.34 -21.34 5.68 -21 5 C-19.28173828 4.52929688 -19.28173828 4.52929688 -17.0703125 4.21875 C-16.27496094 4.09886719 -15.47960937 3.97898437 -14.66015625 3.85546875 C-13.40525391 3.67951172 -13.40525391 3.67951172 -12.125 3.5 C-10.48078147 3.26730344 -8.83748473 3.02797378 -7.1953125 2.78125 C-6.09727295 2.6275293 -6.09727295 2.6275293 -4.97705078 2.47070312 C-2.69724561 2.04870718 -2.69724561 2.04870718 0 0 Z " fill="#3EB1EB" transform="translate(197,264)"/>
<path d="M0 0 C0.66 0.66 1.32 1.32 2 2 C0 5 0 5 -3.375 6.375 C-7 7 -7 7 -9.4375 5.625 C-9.953125 5.08875 -10.46875 4.5525 -11 4 C-11 4.99 -11 5.98 -11 7 C-11.66 7 -12.32 7 -13 7 C-12.690625 8.0725 -12.38125 9.145 -12.0625 10.25 C-11.33187904 12.82866222 -10.62517096 15.39512102 -10 18 C-10.66 18 -11.32 18 -12 18 C-14.67106977 13.72628836 -15.52239102 10.71550116 -14.625 5.8359375 C-12.39864332 -0.70398525 -5.90731347 -0.99809226 0 0 Z " fill="#4B94EF" transform="translate(284,201)"/>
<path d="M0 0 C4.25305346 5.19817645 8.18969227 10.39096071 11.375 16.3125 C14.17398711 21.49912149 17.54651522 26.23279767 21 31 C20.34 32.32 19.68 33.64 19 35 C18.01 35 17.02 35 16 35 C15.1558062 31.02022924 14.55312735 27.02992782 14 23 C13.01 23 12.02 23 11 23 C10.3503125 21.39125 10.3503125 21.39125 9.6875 19.75 C8.71311773 17.44860188 7.82754265 15.77005686 6.3125 13.75 C5 12 5 12 5 9 C4.01 9 3.02 9 2 9 C2 7.35 2 5.7 2 4 C1.34 4 0.68 4 0 4 C0 2.68 0 1.36 0 0 Z " fill="#44CEF0" transform="translate(90,215)"/>
<path d="M0 0 C3.3 0 6.6 0 10 0 C10 4.62 10 9.24 10 14 C2.58036153 15.85490962 -5.24114989 15.68259504 -12.0234375 11.859375 C-15.09041965 9.78133811 -16.8070237 8.57892889 -18 5 C-17.34 5 -16.68 5 -16 5 C-16 5.66 -16 6.32 -16 7 C-15.36191406 7.10957031 -14.72382813 7.21914063 -14.06640625 7.33203125 C-13.24011719 7.49058594 -12.41382813 7.64914062 -11.5625 7.8125 C-10.73878906 7.96332031 -9.91507813 8.11414063 -9.06640625 8.26953125 C-8.04353516 8.63111328 -8.04353516 8.63111328 -7 9 C-6.67 9.99 -6.34 10.98 -6 12 C-4.25093341 12.19601608 -2.50068154 12.38147403 -0.75 12.5625 C0.22453125 12.66691406 1.1990625 12.77132813 2.203125 12.87890625 C5.23388955 13.14288743 5.23388955 13.14288743 9 12 C9 8.7 9 5.4 9 2 C6.03 1.67 3.06 1.34 0 1 C0 0.67 0 0.34 0 0 Z " fill="#57A2E6" transform="translate(250,283)"/>
<path d="M0 0 C0.66 0 1.32 0 2 0 C2.01458252 1.04454346 2.02916504 2.08908691 2.04418945 3.1652832 C2.10215551 7.04014345 2.17938774 10.91442151 2.26245117 14.78881836 C2.29570863 16.46580559 2.32373808 18.14290497 2.34643555 19.82006836 C2.37996737 22.23079225 2.43227978 24.64048762 2.48828125 27.05078125 C2.49467117 27.80087967 2.5010611 28.55097809 2.50764465 29.32380676 C2.56819074 33.4158172 2.56819074 33.4158172 4.53198242 36.87182617 C5.01642822 37.24412354 5.50087402 37.6164209 6 38 C6 38.66 6 39.32 6 40 C4.35 40.66 2.7 41.32 1 42 C1.66 40.35 2.32 38.7 3 37 C2.34 37 1.68 37 1 37 C-0.55977064 33.88045872 -0.12104126 30.57040616 -0.09765625 27.1484375 C-0.0962413 26.37440582 -0.09482635 25.60037415 -0.09336853 24.80288696 C-0.08776403 22.32688558 -0.07521083 19.85097412 -0.0625 17.375 C-0.05748558 15.69791797 -0.05292257 14.02083453 -0.04882812 12.34375 C-0.03779315 8.22913194 -0.02052554 4.11458122 0 0 Z " fill="#55A1E4" transform="translate(243,244)"/>
<path d="M0 0 C0.99 0 1.98 0 3 0 C3 13.2 3 26.4 3 40 C3.66 40 4.32 40 5 40 C4.34 41.32 3.68 42.64 3 44 C-0.42756545 38.28739092 -0.14637354 31.57002151 -0.09765625 25.09765625 C-0.0962413 24.3750914 -0.09482635 23.65252655 -0.09336853 22.9080658 C-0.08782225 20.62616635 -0.0752802 18.34436921 -0.0625 16.0625 C-0.05747804 14.50455872 -0.05291636 12.94661588 -0.04882812 11.38867188 C-0.0378705 7.59240919 -0.02064372 3.79622187 0 0 Z " fill="#69B5ED" transform="translate(228,244)"/>
<path d="M0 0 C9.64062772 -0.46837058 17.09349655 -0.14772718 26 4 C26 4.66 26 5.32 26 6 C26.61875 6.309375 27.2375 6.61875 27.875 6.9375 C29.25 7.625 30.625 8.3125 32 9 C31.67 9.66 31.34 10.32 31 11 C30.4225 10.814375 29.845 10.62875 29.25 10.4375 C26.79307475 9.95976454 25.35602466 10.24270636 23 11 C22.67 9.02 22.34 7.04 22 5 C20.35 5 18.7 5 17 5 C16.67 4.01 16.34 3.02 16 2 C15.26394531 2.01160156 14.52789062 2.02320313 13.76953125 2.03515625 C12.79371094 2.04417969 11.81789063 2.05320313 10.8125 2.0625 C9.36810547 2.07990234 9.36810547 2.07990234 7.89453125 2.09765625 C5.14423487 2.00486622 2.67520409 1.62111685 0 1 C0 0.67 0 0.34 0 0 Z " fill="#7075D6" transform="translate(394,229)"/>
<path d="M0 0 C5.94 0 11.88 0 18 0 C17.30898436 2.07304691 16.61778069 4.14603128 15.92578125 6.21875 C15.27426097 8.17605988 14.62613074 10.13449983 13.98046875 12.09375 C13.63628906 13.1353125 13.29210937 14.176875 12.9375 15.25 C12.61652344 16.22453125 12.29554688 17.1990625 11.96484375 18.203125 C11.05525227 20.83983554 10.05920415 23.42024945 9 26 C8.67 26 8.34 26 8 26 C8.33 22.7 8.66 19.4 9 16 C9.66 16 10.32 16 11 16 C11.144375 15.278125 11.28875 14.55625 11.4375 13.8125 C11.95833333 11.20833333 12.47916667 8.60416667 13 6 C13.66 6 14.32 6 15 6 C15 4.35 15 2.7 15 1 C10.38 1 5.76 1 1 1 C0.67 3.64 0.34 6.28 0 9 C-0.66 9 -1.32 9 -2 9 C-1.34 6.03 -0.68 3.06 0 0 Z " fill="#7087DB" transform="translate(348,230)"/>
<path d="M0 0 C0.33 0 0.66 0 1 0 C1.08912219 3.83225427 0.87867729 7.26562152 0 11 C1.32 10.67 2.64 10.34 4 10 C4 10.66 4 11.32 4 12 C3.34 12 2.68 12 2 12 C1.90847656 12.60328125 1.81695312 13.2065625 1.72265625 13.828125 C0.82279508 16.53257263 -0.20702019 17.2082314 -2.5625 18.75 C-3.20316406 19.17796875 -3.84382813 19.6059375 -4.50390625 20.046875 C-4.99761719 20.36140625 -5.49132812 20.6759375 -6 21 C-6.66 20.67 -7.32 20.34 -8 20 C-7.67 18.68 -7.34 17.36 -7 16 C-6.67 16.33 -6.34 16.66 -6 17 C-4.02 11.39 -2.04 5.78 0 0 Z " fill="#648CED" transform="translate(338,259)"/>
<path d="M0 0 C0 1.32 0 2.64 0 4 C-0.33 4.33 -0.66 4.66 -1 5 C-0.01 5 0.98 5 2 5 C2 5.66 2 6.32 2 7 C1.34 7 0.68 7 0 7 C-0.99 9.97 -1.98 12.94 -3 16 C-3.66 14.68 -4.32 13.36 -5 12 C-4.67 11.34 -4.34 10.68 -4 10 C-4.66 10 -5.32 10 -6 10 C-6 7.03 -6 4.06 -6 1 C-3 0 -3 0 0 0 Z " fill="#576DED" transform="translate(390,241)"/>
<path d="M0 0 C0.66 0.99 1.32 1.98 2 3 C1 4 1 4 -0.84765625 4.09765625 C-2.8984375 4.06510417 -4.94921875 4.03255208 -7 4 C-7.66 5.32 -8.32 6.64 -9 8 C-9.66 7.67 -10.32 7.34 -11 7 C-11 6.67 -11 6.34 -11 6 C-12.65 5.67 -14.3 5.34 -16 5 C-11.55684625 -0.14470434 -6.42661962 -0.5267721 0 0 Z " fill="#5966E9" transform="translate(399,230)"/>
<path d="M0 0 C1.0219043 -0.01160156 1.0219043 -0.01160156 2.06445312 -0.0234375 C6.3938543 -0.00680195 9.91468736 0.66848864 13.9375 2.25 C13.9375 2.58 13.9375 2.91 13.9375 3.25 C6.0175 2.92 -1.9025 2.59 -10.0625 2.25 C-10.0625 2.91 -10.0625 3.57 -10.0625 4.25 C-14.5175 4.745 -14.5175 4.745 -19.0625 5.25 C-13.58817329 0.43259249 -7.03055951 -0.0802728 0 0 Z " fill="#51B4E2" transform="translate(185.0625,228.75)"/>
<path d="M0 0 C4 4 4 4 4.5625 7.9375 C4.40442876 11.46775759 3.98330851 12.02011539 1.5625 14.9375 C0.2940625 15.9584375 0.2940625 15.9584375 -1 17 C-1.33 17.33 -1.66 17.66 -2 18 C-3.51928038 18.07179964 -5.04167482 18.08392007 -6.5625 18.0625 C-7.38878906 18.05347656 -8.21507812 18.04445312 -9.06640625 18.03515625 C-10.02353516 18.01775391 -10.02353516 18.01775391 -11 18 C-11 17.34 -11 16.68 -11 16 C-8.03 16 -5.06 16 -2 16 C-1.67 15.01 -1.34 14.02 -1 13 C-0.34 13 0.32 13 1 13 C0.67 8.71 0.34 4.42 0 0 Z " fill="#669FE2" transform="translate(286,203)"/>
<path d="M0 0 C2.50402124 2.91121635 3.3736665 4.65468577 3.34057617 8.49316406 C3.34034958 9.37377502 3.34012299 10.25438599 3.33988953 11.16168213 C3.32440567 12.10348328 3.30892181 13.04528442 3.29296875 14.015625 C3.28872391 14.98659119 3.28447906 15.95755737 3.28010559 16.95794678 C3.26332853 20.05558131 3.22567772 23.15256249 3.1875 26.25 C3.17245192 28.3515531 3.15876373 30.4531164 3.14648438 32.5546875 C3.11342811 37.70337629 3.06165208 42.85157741 3 48 C2.67 48 2.34 48 2 48 C2 34.47 2 20.94 2 7 C1.34 7 0.68 7 0 7 C0 4.69 0 2.38 0 0 Z " fill="#31A9EF" transform="translate(207,239)"/>
<path d="M0 0 C0.33 0 0.66 0 1 0 C1.33 3.3 1.66 6.6 2 10 C2.66 10 3.32 10 4 10 C7 15.625 7 15.625 7 19 C7.66 19 8.32 19 9 19 C8.67 20.32 8.34 21.64 8 23 C6.15947576 20.0460832 4.32882635 17.08617092 2.5 14.125 C1.97535156 13.28324219 1.45070313 12.44148437 0.91015625 11.57421875 C0.41386719 10.76855469 -0.08242187 9.96289062 -0.59375 9.1328125 C-1.28500977 8.01737061 -1.28500977 8.01737061 -1.99023438 6.87939453 C-3 5 -3 5 -3 3 C-2.34 3 -1.68 3 -1 3 C-0.67 2.01 -0.34 1.02 0 0 Z " fill="#45D7F1" transform="translate(87,229)"/>
<path d="M0 0 C0 0.66 0 1.32 0 2 C-0.99 2.66 -1.98 3.32 -3 4 C-4.38540265 6.92473892 -5.29896497 9.84534238 -6 13 C-5.01 13.33 -4.02 13.66 -3 14 C-3.33 14.66 -3.66 15.32 -4 16 C-5.98 15.34 -7.96 14.68 -10 14 C-9.49357808 9.64477147 -8.61588503 6.55760365 -6 3 C-5.34 3 -4.68 3 -4 3 C-4 2.34 -4 1.68 -4 1 C-2 0 -2 0 0 0 Z " fill="#53C0EA" transform="translate(166,235)"/>
<path d="M0 0 C2 3 2 3 2 6 C4.64 6 7.28 6 10 6 C9.67 6.66 9.34 7.32 9 8 C6.69 8 4.38 8 2 8 C2 9.65 2 11.3 2 13 C3.98 13 5.96 13 8 13 C8 13.33 8 13.66 8 14 C5.36 14 2.72 14 0 14 C0 9.38 0 4.76 0 0 Z " fill="#4CA8E8" transform="translate(219,230)"/>
<path d="M0 0 C1.8125 0.125 1.8125 0.125 4 1 C7 6.03571429 7 6.03571429 7 9 C7.66 9.33 8.32 9.66 9 10 C11.76223278 12.76223278 11.57856291 15.20706617 12 19 C9.04086421 15.39438634 6.34824456 11.68580902 3.75 7.8125 C2.69039063 6.24435547 2.69039063 6.24435547 1.609375 4.64453125 C0 2 0 2 0 0 Z " fill="#45CDEF" transform="translate(106,267)"/>
<path d="M0 0 C2.97 0.495 2.97 0.495 6 1 C5.05065487 2.67180274 4.09026687 4.33733936 3.125 6 C2.59132813 6.928125 2.05765625 7.85625 1.5078125 8.8125 C1.01023437 9.534375 0.51265625 10.25625 0 11 C-0.66 11 -1.32 11 -2 11 C-1.85892253 9.54119891 -1.71197585 8.08296449 -1.5625 6.625 C-1.48128906 5.81289063 -1.40007812 5.00078125 -1.31640625 4.1640625 C-1 2 -1 2 0 0 Z " fill="#726DE0" transform="translate(427,279)"/>
<path d="M0 0 C5.61 0 11.22 0 17 0 C20.22265625 7.6171875 20.22265625 7.6171875 21 10 C20.67 10.66 20.34 11.32 20 12 C19.67 11.01 19.34 10.02 19 9 C18.34 8.67 17.68 8.34 17 8 C16.59270772 5.67843403 16.25561323 3.3431213 16 1 C11.71 1 7.42 1 3 1 C3 1.66 3 2.32 3 3 C2.01 2.67 1.02 2.34 0 2 C0 1.34 0 0.68 0 0 Z " fill="#618FDD" transform="translate(298,230)"/>
<path d="M0 0 C2 1 4 2 6 3 C6.33 2.01 6.66 1.02 7 0 C8.4606285 2.64738916 9 3.89448334 9 7 C9.639375 7.12375 10.27875 7.2475 10.9375 7.375 C11.618125 7.58125 12.29875 7.7875 13 8 C13.33 8.66 13.66 9.32 14 10 C9.39571066 8.68448876 5.81679612 6.90803514 2 4 C2 3.34 2 2.68 2 2 C1.34 2 0.68 2 0 2 C0 1.34 0 0.68 0 0 Z " fill="#6F7DE2" transform="translate(376,286)"/>
<path d="M0 0 C0.99 0.33 1.98 0.66 3 1 C3 1.66 3 2.32 3 3 C5.31 3.66 7.62 4.32 10 5 C10.33 6.32 10.66 7.64 11 9 C6.90114782 9.47661072 5.44069635 9.3448928 2.125 6.75 C0 4 0 4 0 0 Z " fill="#6E75EB" transform="translate(389,278)"/>
<path d="M0 0 C1.32 0.33 2.64 0.66 4 1 C4 1.66 4 2.32 4 3 C4.928125 3.4640625 4.928125 3.4640625 5.875 3.9375 C7.25 4.625 8.625 5.3125 10 6 C9.67 6.66 9.34 7.32 9 8 C8.4225 7.814375 7.845 7.62875 7.25 7.4375 C4.79307475 6.95976454 3.35602466 7.24270636 1 8 C0.67 5.36 0.34 2.72 0 0 Z " fill="#6F6EE5" transform="translate(416,232)"/>
<path d="M0 0 C1.82421875 0.03515625 1.82421875 0.03515625 4 1 C5.16039025 3.52660808 6.02074041 5.79911344 6.8125 8.4375 C7.04130859 9.13166016 7.27011719 9.82582031 7.50585938 10.54101562 C9.14323689 15.71352623 9.14323689 15.71352623 8 18 C5.24331998 14.04476345 4.4682121 10.77576339 4 6 C3.34 6 2.68 6 2 6 C2 4.68 2 3.36 2 2 C1.34 2 0.68 2 0 2 C0 1.34 0 0.68 0 0 Z " fill="#6A90E2" transform="translate(319,250)"/>
<path d="M0 0 C0.66 0.33 1.32 0.66 2 1 C1.34 2.65 0.68 4.3 0 6 C-0.66 6 -1.32 6 -2 6 C-1.690625 7.0725 -1.38125 8.145 -1.0625 9.25 C-0.33187904 11.82866222 0.37482904 14.39512102 1 17 C0.34 17 -0.32 17 -1 17 C-4.2689803 11.76963152 -4.33810675 8.83032227 -3 3 C-1.4375 1 -1.4375 1 0 0 Z " fill="#6BA6E4" transform="translate(273,202)"/>
<path d="M0 0 C0 2 0 2 -1.25 3.375 C-1.8275 3.91125 -2.405 4.4475 -3 5 C-6.21987959 8.01273619 -6.21987959 8.01273619 -8 12 C-8.66 12 -9.32 12 -10 12 C-10 12.66 -10 13.32 -10 14 C-10.66 13.67 -11.32 13.34 -12 13 C-3.66666667 0 -3.66666667 0 0 0 Z " fill="#707FDD" transform="translate(383,235)"/>
<path d="M0 0 C3.5 1.5 3.5 1.5 6 3 C5.34 3.66 4.68 4.32 4 5 C3.505 4.67 3.01 4.34 2.5 4 C-2.06224735 2.17510106 -7.34839376 2.44946459 -12 4 C-12 3.34 -12 2.68 -12 2 C-8.27254949 -0.48496701 -4.32419492 -0.57158898 0 0 Z " fill="#4DB5E9" transform="translate(188,241)"/>
<path d="M0 0 C1.32 0.33 2.64 0.66 4 1 C-2.03271275 5.25032035 -5.42304237 6.13576958 -12.75 6.0625 C-13.92046875 6.05347656 -15.0909375 6.04445313 -16.296875 6.03515625 C-17.18890625 6.02355469 -18.0809375 6.01195312 -19 6 C-19 5.67 -19 5.34 -19 5 C-10.09 4.01 -10.09 4.01 -1 3 C-0.67 2.01 -0.34 1.02 0 0 Z " fill="#54B9EC" transform="translate(189,292)"/>
<path d="M0 0 C0.99 0.33 1.98 0.66 3 1 C2.814375 1.763125 2.62875 2.52625 2.4375 3.3125 C1.77180827 6.08967375 1.77180827 6.08967375 3 9 C6.3 9.66 9.6 10.32 13 11 C13 11.33 13 11.66 13 12 C5.52908757 13.34721372 5.52908757 13.34721372 3 11.6875 C2 10 2 10 2 8 C1.34 8 0.68 8 0 8 C0 5.36 0 2.72 0 0 Z " fill="#58BDE8" transform="translate(169,274)"/>
<path d="M0 0 C0.99 0.33 1.98 0.66 3 1 C4.1875 3.5625 4.1875 3.5625 5 6 C4.34 6.66 3.68 7.32 3 8 C2.01 8 1.02 8 0 8 C-0.79953138 4.71303767 -1.09658936 3.28976808 0 0 Z " fill="#2DD0F3" transform="translate(106,242)"/>
<path d="M0 0 C0.75 1.625 0.75 1.625 1 4 C-2.17808219 9.5890411 -2.17808219 9.5890411 -5 11 C-6.99960012 11.039992 -9.00047242 11.04346799 -11 11 C-8 9 -8 9 -5.5 7.75 C-2.41197591 5.58838314 -1.44772503 3.42882243 0 0 Z " fill="#4EB6E9" transform="translate(194,274)"/>
<path d="M0 0 C3.44868587 4.08733141 6.23793154 8.43805907 9 13 C7.68 12.67 6.36 12.34 5 12 C5 11.01 5 10.02 5 9 C4.01 9 3.02 9 2 9 C2 7.35 2 5.7 2 4 C1.34 4 0.68 4 0 4 C0 2.68 0 1.36 0 0 Z " fill="#59D6EF" transform="translate(90,215)"/>
<path d="M0 0 C0.66 0.66 1.32 1.32 2 2 C0.68 5.63 -0.64 9.26 -2 13 C-2.66 11.68 -3.32 10.36 -4 9 C-3.25 7.0625 -3.25 7.0625 -2 5 C-1.32033324 3.33859237 -0.65061095 1.67299959 0 0 Z " fill="#6689E2" transform="translate(343,284)"/>
<path d="M0 0 C2.31 0.33 4.62 0.66 7 1 C6.01 2.98 5.02 4.96 4 7 C2.35 6.67 0.7 6.34 -1 6 C0.32 5.67 1.64 5.34 3 5 C3 4.01 3 3.02 3 2 C2.01 2 1.02 2 0 2 C0 1.34 0 0.68 0 0 Z " fill="#40B7EC" transform="translate(166,246)"/>
<path d="M0 0 C1.98 0.495 1.98 0.495 4 1 C4 1.66 4 2.32 4 3 C4.99 3.33 5.98 3.66 7 4 C7.33 4.99 7.66 5.98 8 7 C7.01 7 6.02 7 5 7 C5 6.34 5 5.68 5 5 C3.35 5 1.7 5 0 5 C-0.33 4.01 -0.66 3.02 -1 2 C-0.67 1.34 -0.34 0.68 0 0 Z " fill="#4AB2E6" transform="translate(199,232)"/>
<path d="M0 0 C1.32 0.33 2.64 0.66 4 1 C4.33 2.65 4.66 4.3 5 6 C5.66 6 6.32 6 7 6 C7 7.65 7 9.3 7 11 C4.04250209 7.53258866 1.92151848 4.13126473 0 0 Z " fill="#5FD8F1" transform="translate(96,252)"/>
<path d="M0 0 C-0.33 0.66 -0.66 1.32 -1 2 C-1.99 2 -2.98 2 -4 2 C-4 2.66 -4 3.32 -4 4 C-5.32 4.33 -6.64 4.66 -8 5 C-8 3.68 -8 2.36 -8 1 C-4.93251126 -0.86240388 -3.40254489 -1.2151946 0 0 Z " fill="#7470E3" transform="translate(424,291)"/>
<path d="M0 0 C0.99 0.33 1.98 0.66 3 1 C3 2.65 3 4.3 3 6 C3.66 6 4.32 6 5 6 C5 7.98 5 9.96 5 12 C3 11 3 11 2.1484375 8.49609375 C1.89320313 7.48675781 1.63796875 6.47742188 1.375 5.4375 C1.11460937 4.42558594 0.85421875 3.41367187 0.5859375 2.37109375 C0.39257812 1.58863281 0.19921875 0.80617188 0 0 Z " fill="#6D95E7" transform="translate(314,273)"/>
<path d="M0 0 C2.31 0 4.62 0 7 0 C7 0.99 7 1.98 7 3 C7.99 3.66 8.98 4.32 10 5 C6.05140217 4.4359146 3.29120954 3.2568294 0 1 C0 0.67 0 0.34 0 0 Z " fill="#50BFEB" transform="translate(159,292)"/>
<path d="M0 0 C0.33 0 0.66 0 1 0 C1 1.65 1 3.3 1 5 C1.66 5 2.32 5 3 5 C2.34 6.32 1.68 7.64 1 9 C0.01 9 -0.98 9 -2 9 C-1.34 6.03 -0.68 3.06 0 0 Z " fill="#6B8BE7" transform="translate(341,250)"/>
<path d="M0 0 C0 0.99 0 1.98 0 3 C-3.4352048 5.29013653 -4.985331 5.17842973 -9 5 C-7.694761 2.38952199 -6.64173426 2.31933577 -3.9375 1.375 C-3.20402344 1.11460937 -2.47054688 0.85421875 -1.71484375 0.5859375 C-1.14894531 0.39257812 -0.58304687 0.19921875 0 0 Z " fill="#7E80E1" transform="translate(414,280)"/>
<path d="M0 0 C0.66 0 1.32 0 2 0 C5.11450382 4.15267176 5.11450382 4.15267176 4.6875 7.3125 C4.460625 7.869375 4.23375 8.42625 4 9 C3.71125 8.360625 3.4225 7.72125 3.125 7.0625 C2.17176549 4.84793921 2.17176549 4.84793921 0 4 C0 2.68 0 1.36 0 0 Z " fill="#736EDA" transform="translate(426,241)"/>
<path d="M0 0 C0.66 0.33 1.32 0.66 2 1 C1.01 4.3 0.02 7.6 -1 11 C-1.33 11 -1.66 11 -2 11 C-1.85892253 9.54119891 -1.71197585 8.08296449 -1.5625 6.625 C-1.48128906 5.81289063 -1.40007812 5.00078125 -1.31640625 4.1640625 C-1 2 -1 2 0 0 Z " fill="#758CE3" transform="translate(354,255)"/>
<path d="M0 0 C0.99 0 1.98 0 3 0 C3 0.66 3 1.32 3 2 C2.34 2 1.68 2 1 2 C0.34 3.65 -0.32 5.3 -1 7 C-3 4 -3 4 -3 2 C-2.01 2 -1.02 2 0 2 C0 1.34 0 0.68 0 0 Z " fill="#7C83E6" transform="translate(389,246)"/>
<path d="M0 0 C3.08089673 2.77280706 4.68775452 5.06326356 6 9 C5.01 9.495 5.01 9.495 4 10 C3.67 8.68 3.34 7.36 3 6 C2.34 6 1.68 6 1 6 C0.67 4.02 0.34 2.04 0 0 Z " fill="#49D7F2" transform="translate(84,206)"/>
<path d="M0 0 C2.64 0.33 5.28 0.66 8 1 C8 1.33 8 1.66 8 2 C1.375 3 1.375 3 -2 3 C-1.34 2.01 -0.68 1.02 0 0 Z " fill="#8C8DE1" transform="translate(417,276)"/>
<path d="M0 0 C-0.66 1.65 -1.32 3.3 -2 5 C-3.65 4.67 -5.3 4.34 -7 4 C-3.17391304 0 -3.17391304 0 0 0 Z " fill="#6D7AE0" transform="translate(390,231)"/>
<path d="M0 0 C-0.66 0 -1.32 0 -2 0 C-2 0.66 -2 1.32 -2 2 C-6.455 2.495 -6.455 2.495 -11 3 C-7.18178484 -0.02823961 -4.81391924 -1.49397494 0 0 Z " fill="#59C1EA" transform="translate(177,231)"/>
<path d="M0 0 C0.33 0 0.66 0 1 0 C1 2.97 1 5.94 1 9 C0.01 9 -0.98 9 -2 9 C-1.34 6.03 -0.68 3.06 0 0 Z " fill="#7DA0E8" transform="translate(335,267)"/>
<path d="M0 0 C0.66 0 1.32 0 2 0 C2.66 2.64 3.32 5.28 4 8 C3.34 8 2.68 8 2 8 C-0.1519437 4.77208445 -0.20086443 3.71599191 0 0 Z " fill="#7684E1" transform="translate(385,270)"/>
<path d="" fill="#FFFFFF" transform="translate(0,0)"/>
<path d="" fill="#FFFFFF" transform="translate(0,0)"/>
<path d="" fill="#FFFFFF" transform="translate(0,0)"/>
<path d="" fill="#FFFFFF" transform="translate(0,0)"/>
<path d="" fill="#FFFFFF" transform="translate(0,0)"/>
<path d="" fill="#FFFFFF" transform="translate(0,0)"/>
<path d="" fill="#FFFFFF" transform="translate(0,0)"/>
<path d="" fill="#FFFFFF" transform="translate(0,0)"/>
<path d="" fill="#FFFFFF" transform="translate(0,0)"/>
<path d="" fill="#FFFFFF" transform="translate(0,0)"/>
<path d="" fill="#FFFFFF" transform="translate(0,0)"/>
<path d="" fill="#FFFFFF" transform="translate(0,0)"/>
<path d="" fill="#FFFFFF" transform="translate(0,0)"/>
<path d="" fill="#FFFFFF" transform="translate(0,0)"/>
<path d="" fill="#FFFFFF" transform="translate(0,0)"/>
<path d="" fill="#FFFFFF" transform="translate(0,0)"/>
<path d="" fill="#FFFFFF" transform="translate(0,0)"/>
<path d="" fill="#FFFFFF" transform="translate(0,0)"/>
<path d="" fill="#FFFFFF" transform="translate(0,0)"/>
<path d="" fill="#FFFFFF" transform="translate(0,0)"/>
<path d="" fill="#FFFFFF" transform="translate(0,0)"/>
<path d="" fill="#FFFFFF" transform="translate(0,0)"/>
<path d="" fill="#FFFFFF" transform="translate(0,0)"/>
<path d="" fill="#FFFFFF" transform="translate(0,0)"/>
<path d="" fill="#FFFFFF" transform="translate(0,0)"/>
<path d="" fill="#FFFFFF" transform="translate(0,0)"/>
<path d="" fill="#FFFFFF" transform="translate(0,0)"/>
<path d="" fill="#FFFFFF" transform="translate(0,0)"/>
<path d="" fill="#FFFFFF" transform="translate(0,0)"/>
<path d="" fill="#FFFFFF" transform="translate(0,0)"/>
<path d="" fill="#FFFFFF" transform="translate(0,0)"/>
<path d="" fill="#FFFFFF" transform="translate(0,0)"/>
<path d="" fill="#FFFFFF" transform="translate(0,0)"/>
<path d="" fill="#FFFFFF" transform="translate(0,0)"/>
<path d="" fill="#FFFFFF" transform="translate(0,0)"/>
<path d="" fill="#FFFFFF" transform="translate(0,0)"/>
<path d="" fill="#FFFFFF" transform="translate(0,0)"/>
<path d="" fill="#FFFFFF" transform="translate(0,0)"/>
<path d="" fill="#FFFFFF" transform="translate(0,0)"/>
<path d="" fill="#FFFFFF" transform="translate(0,0)"/>
<path d="" fill="#FFFFFF" transform="translate(0,0)"/>
<path d="" fill="#FFFFFF" transform="translate(0,0)"/>
<path d="" fill="#FFFFFF" transform="translate(0,0)"/>
<path d="" fill="#FFFFFF" transform="translate(0,0)"/>
<path d="" fill="#FFFFFF" transform="translate(0,0)"/>
<path d="" fill="#FFFFFF" transform="translate(0,0)"/>
<path d="" fill="#FFFFFF" transform="translate(0,0)"/>
<path d="" fill="#FFFFFF" transform="translate(0,0)"/>
<path d="" fill="#FFFFFF" transform="translate(0,0)"/>
<path d="" fill="#FFFFFF" transform="translate(0,0)"/>
<path d="" fill="#FFFFFF" transform="translate(0,0)"/>
<path d="" fill="#FFFFFF" transform="translate(0,0)"/>
<path d="" fill="#FFFFFF" transform="translate(0,0)"/>
<path d="" fill="#FFFFFF" transform="translate(0,0)"/>
<path d="" fill="#FFFFFF" transform="translate(0,0)"/>
<path d="" fill="#FFFFFF" transform="translate(0,0)"/>
<path d="" fill="#FFFFFF" transform="translate(0,0)"/>
<path d="" fill="#FFFFFF" transform="translate(0,0)"/>
<path d="" fill="#FFFFFF" transform="translate(0,0)"/>
<path d="" fill="#FFFFFF" transform="translate(0,0)"/>
<path d="" fill="#FFFFFF" transform="translate(0,0)"/>
<path d="" fill="#FFFFFF" transform="translate(0,0)"/>
<path d="" fill="#FFFFFF" transform="translate(0,0)"/>
<path d="" fill="#FFFFFF" transform="translate(0,0)"/>
<path d="" fill="#FFFFFF" transform="translate(0,0)"/>
<path d="" fill="#FFFFFF" transform="translate(0,0)"/>
<path d="" fill="#FFFFFF" transform="translate(0,0)"/>
<path d="" fill="#FFFFFF" transform="translate(0,0)"/>
<path d="" fill="#FFFFFF" transform="translate(0,0)"/>
<path d="" fill="#FFFFFF" transform="translate(0,0)"/>
<path d="" fill="#FFFFFF" transform="translate(0,0)"/>
<path d="" fill="#FFFFFF" transform="translate(0,0)"/>
<path d="" fill="#FFFFFF" transform="translate(0,0)"/>
<path d="" fill="#FFFFFF" transform="translate(0,0)"/>
<path d="" fill="#FFFFFF" transform="translate(0,0)"/>
<path d="" fill="#FFFFFF" transform="translate(0,0)"/>
<path d="" fill="#FFFFFF" transform="translate(0,0)"/>
<path d="" fill="#FFFFFF" transform="translate(0,0)"/>
<path d="" fill="#FFFFFF" transform="translate(0,0)"/>
<path d="" fill="#FFFFFF" transform="translate(0,0)"/>
<path d="" fill="#FFFFFF" transform="translate(0,0)"/>
<path d="" fill="#FFFFFF" transform="translate(0,0)"/>
<path d="" fill="#FFFFFF" transform="translate(0,0)"/>
<path d="" fill="#FFFFFF" transform="translate(0,0)"/>
<path d="" fill="#FFFFFF" transform="translate(0,0)"/>
<path d="" fill="#FFFFFF" transform="translate(0,0)"/>
</svg>
